<svg width="468" height="360" viewBox="0 0 468 360" fill="none" xmlns="http://www.w3.org/2000/svg">
<rect width="467.027" height="360" rx="48.6486" fill="#CBCBCB"/>
<rect x="38.9189" y="53.5135" width="389.189" height="267.568" rx="24.3243" fill="black"/>
<rect x="41.3514" y="41.3514" width="384.324" height="262.703" rx="21.8919" fill="url(#paint0_linear_365_479)" stroke="url(#paint1_linear_365_479)" stroke-width="4.86486"/>
<path d="M68.7684 245.017V237.492H73.8708V245.017H80.655V249.207H73.8708V266.481C73.8708 270.016 75.068 270.928 78.7167 270.928C79.4578 270.928 80.598 270.843 81.0826 270.786V274.919C80.655 275.033 78.5457 275.175 77.4054 275.175C70.2792 275.175 68.7399 272.439 68.7399 266.51V249.207H64.1506V245.017H68.7684ZM97.188 275.404C91.3729 275.404 87.3822 271.755 87.3822 266.196C87.3822 260.951 91.0309 257.388 97.9291 257.388H105.768V254.424C105.768 250.576 103.345 248.808 99.4969 248.808C95.7057 248.808 94.1094 250.291 93.5108 252.371H88.5224C88.9785 247.298 92.9692 244.447 99.6679 244.447C105.854 244.447 110.956 247.098 110.956 254.452V274.919H105.996V270.928H105.768C104.314 273.351 101.606 275.404 97.188 275.404ZM98.6132 271.071C102.661 271.071 105.768 268.334 105.768 264.657V261.322H98.3567C94.309 261.322 92.6557 263.346 92.6557 266.025C92.6557 269.503 95.5062 271.071 98.6132 271.071ZM135.1 275.375C130.881 275.375 127.546 273.551 126.206 270.472H125.95V274.919H120.99V233.957H126.149V249.692H126.406C127.346 246.556 130.909 244.476 135.242 244.476C142.311 244.476 146.73 249.407 146.73 257.331V262.491C146.73 270.444 142.254 275.375 135.1 275.375ZM134.102 270.957C138.805 270.957 141.542 267.536 141.542 261.607V258.415C141.542 252.371 138.777 248.894 133.96 248.894C129.171 248.894 126.149 252.314 126.149 257.759V262.69C126.149 267.536 129.484 270.957 134.102 270.957Z" fill="white"/>
<defs>
<linearGradient id="paint0_linear_365_479" x1="233.514" y1="68.1081" x2="233.514" y2="306.487" gradientUnits="userSpaceOnUse">
<stop stop-color="#404040"/>
<stop offset="1" stop-color="#222222"/>
</linearGradient>
<linearGradient id="paint1_linear_365_479" x1="233.514" y1="38.9189" x2="233.514" y2="306.487" gradientUnits="userSpaceOnUse">
<stop stop-color="#404040"/>
<stop offset="1" stop-color="#303030"/>
</linearGradient>
</defs>
</svg>
