<svg width="844" height="360" viewBox="0 0 844 360" fill="none" xmlns="http://www.w3.org/2000/svg">
<rect width="844" height="360" rx="48.6486" fill="#CBCBCB"/>
<rect x="38.9189" y="53.5135" width="282.162" height="267.568" rx="24.3243" fill="black"/>
<rect x="41.3514" y="41.3514" width="277.297" height="262.703" rx="21.8919" fill="url(#paint0_linear_365_536)" stroke="url(#paint1_linear_365_536)" stroke-width="4.86486"/>
<path d="M195.782 153.804C194.756 153.804 193.958 154.231 192.875 154.773L157.757 171.791C155.619 172.845 154.935 173.814 154.935 175.183C154.935 176.522 155.619 177.492 157.757 178.546L192.875 195.564C193.987 196.105 194.785 196.533 195.811 196.533C197.664 196.533 198.804 195.108 198.804 192.913V157.424C198.804 155.229 197.635 153.804 195.782 153.804Z" fill="white"/>
<path d="M397.115 158.259C413.085 158.259 425.399 168.841 425.399 187.633V198.216C425.399 217.008 413.149 227.59 397.115 227.59C380.76 227.59 368.767 217.2 368.767 198.216V187.633C368.767 169.419 380.953 158.259 397.115 158.259ZM397.179 166.532C385.699 166.532 378.002 175.255 378.002 188.724V197.254C378.002 210.979 385.314 219.381 397.179 219.381C408.916 219.381 416.099 211.043 416.099 197.254V188.724C416.099 175.255 408.595 166.532 397.179 166.532ZM446.949 226.5V159.349H456.185V170.124H456.634C458.301 165.442 463.368 158.323 475.618 158.323C477.093 158.323 478.504 158.515 479.787 158.644V167.302C478.761 167.11 476.644 166.981 474.528 166.981C462.727 166.981 456.185 174.229 456.185 184.234V226.5H446.949Z" fill="black"/>
<rect x="522.919" y="53.5135" width="282.162" height="267.568" rx="24.3243" fill="black"/>
<rect x="525.351" y="41.3514" width="277.297" height="262.703" rx="21.8919" fill="url(#paint2_linear_365_536)" stroke="url(#paint3_linear_365_536)" stroke-width="4.86486"/>
<path d="M643.381 196.533C644.379 196.533 645.177 196.105 646.26 195.564L681.379 178.546C683.516 177.492 684.201 176.522 684.201 175.183C684.201 173.814 683.516 172.845 681.379 171.791L646.26 154.773C645.149 154.231 644.35 153.804 643.353 153.804C641.471 153.804 640.303 155.229 640.303 157.424L640.331 192.913C640.331 195.108 641.5 196.533 643.381 196.533Z" fill="white"/>
<defs>
<linearGradient id="paint0_linear_365_536" x1="180" y1="68.1081" x2="180" y2="306.487" gradientUnits="userSpaceOnUse">
<stop stop-color="#404040"/>
<stop offset="1" stop-color="#222222"/>
</linearGradient>
<linearGradient id="paint1_linear_365_536" x1="180" y1="38.9189" x2="180" y2="306.487" gradientUnits="userSpaceOnUse">
<stop stop-color="#404040"/>
<stop offset="1" stop-color="#303030"/>
</linearGradient>
<linearGradient id="paint2_linear_365_536" x1="664" y1="68.1081" x2="664" y2="306.487" gradientUnits="userSpaceOnUse">
<stop stop-color="#404040"/>
<stop offset="1" stop-color="#222222"/>
</linearGradient>
<linearGradient id="paint3_linear_365_536" x1="664" y1="38.9189" x2="664" y2="306.487" gradientUnits="userSpaceOnUse">
<stop stop-color="#404040"/>
<stop offset="1" stop-color="#303030"/>
</linearGradient>
</defs>
</svg>
