<svg width="1439" height="360" viewBox="0 0 1439 360" fill="none" xmlns="http://www.w3.org/2000/svg">
<rect width="1438.05" height="360" rx="48.6486" fill="#CBCBCB"/>
<rect x="38.9189" y="53.5135" width="389.189" height="267.568" rx="24.3243" fill="black"/>
<rect x="41.3514" y="41.3514" width="384.324" height="262.703" rx="21.8919" fill="url(#paint0_linear_365_397)" stroke="url(#paint1_linear_365_397)" stroke-width="4.86486"/>
<path d="M360.855 85.4393L381.521 64.2885C382.12 63.6614 382.861 63.3193 383.688 63.3193C384.514 63.3478 385.284 63.6614 385.883 64.317L406.549 85.4678C407.09 85.9809 407.375 86.665 407.375 87.4631C407.375 89.0879 406.15 90.3421 404.525 90.3421C403.755 90.3421 403.014 90.0286 402.473 89.487L383.716 70.2461L364.903 89.487C364.39 90.0286 363.649 90.3421 362.851 90.3421C361.254 90.3421 360 89.0879 360 87.4631C360 86.665 360.314 85.9809 360.855 85.4393Z" fill="white"/>
<path d="M61.9986 262.32V257.417C61.9986 249.549 66.8159 244.447 74.5123 244.447C82.0091 244.447 85.8858 249.065 86.0283 253.597H80.9829C80.6694 251.83 79.2726 248.951 74.5978 248.951C69.6949 248.951 67.158 252.343 67.158 257.588V262.377C67.158 267.593 69.98 270.9 74.5978 270.9C79.0161 270.9 80.6694 268.876 81.211 266.595H86.2279C86.0568 271.014 82.4367 275.404 74.5123 275.404C66.7874 275.404 61.9986 270.358 61.9986 262.32ZM105.925 244.447C113.365 244.447 118.866 249.321 118.866 257.673V262.12C118.866 270.586 113.365 275.404 105.925 275.404C98.3425 275.404 92.9551 270.672 92.9551 262.12V257.702C92.9551 249.606 98.428 244.447 105.925 244.447ZM105.953 248.837C101.136 248.837 98.1145 252.656 98.1145 258.129V261.75C98.1145 267.308 100.936 271.042 105.953 271.042C110.913 271.042 113.678 267.308 113.678 261.75V258.129C113.678 252.656 110.771 248.837 105.953 248.837ZM127.532 274.919V244.932H132.634V250.376H132.919C133.66 248.01 135.741 244.447 142.012 244.447C148.055 244.447 152.189 247.725 152.189 254.452V274.919H147.029V256.077C147.029 251.374 144.606 248.951 140.53 248.951C135.257 248.951 132.691 253.027 132.691 258.215V274.919H127.532ZM163.819 245.017V237.492H168.921V245.017H175.705V249.207H168.921V266.481C168.921 270.016 170.118 270.928 173.767 270.928C174.508 270.928 175.648 270.843 176.133 270.786V274.919C175.705 275.033 173.596 275.175 172.456 275.175C165.329 275.175 163.79 272.439 163.79 266.51V249.207H159.201V245.017H163.819ZM184.599 274.919V244.932H189.758V249.549H190.015C190.756 247.583 192.922 244.476 198.224 244.476C198.88 244.476 199.507 244.533 200.106 244.618V249.321C199.621 249.207 198.595 249.15 197.683 249.15C192.409 249.15 189.787 252.314 189.787 256.391V274.919H184.599ZM218.406 244.447C225.846 244.447 231.347 249.321 231.347 257.673V262.12C231.347 270.586 225.846 275.404 218.406 275.404C210.824 275.404 205.436 270.672 205.436 262.12V257.702C205.436 249.606 210.909 244.447 218.406 244.447ZM218.434 248.837C213.617 248.837 210.595 252.656 210.595 258.129V261.75C210.595 267.308 213.417 271.042 218.434 271.042C223.394 271.042 226.159 267.308 226.159 261.75V258.129C226.159 252.656 223.252 248.837 218.434 248.837ZM240.184 274.919V233.957H245.343V274.919H240.184Z" fill="white"/>
<path d="M506.811 195.522V224.768H499.243V195.522H472.626V187.89H499.243V160.183H506.811V187.89H533.492V195.522H506.811Z" fill="black"/>
<rect x="577.946" y="53.5135" width="389.189" height="267.568" rx="24.3243" fill="black"/>
<rect x="580.378" y="41.3514" width="384.324" height="262.703" rx="21.8919" fill="url(#paint2_linear_365_397)" stroke="url(#paint3_linear_365_397)" stroke-width="4.86486"/>
<path d="M911.541 58.4734C913.536 58.4734 915.161 59.5566 915.987 61.3809L929.442 91.4538C929.755 92.1094 930.212 92.4229 931.01 92.4229H939.846C941.214 92.4229 942.326 93.4776 942.326 94.8173C942.326 96.1286 941.214 97.2118 939.846 97.2118H929.784C927.646 97.2118 926.278 96.3281 925.366 94.3043L911.854 64.2029C911.569 63.5758 911.085 63.2622 910.372 63.2622H901.535C900.11 63.2622 899.027 62.2361 899.027 60.8678C899.027 59.5281 900.139 58.4734 901.535 58.4734H911.541ZM939.846 58.4734C941.243 58.4734 942.326 59.4996 942.326 60.8393C942.326 62.2076 941.243 63.2337 939.846 63.2337H926.905C925.508 63.2337 924.453 62.2076 924.453 60.8393C924.453 59.4996 925.508 58.4734 926.905 58.4734H939.846Z" fill="white"/>
<path d="M613.995 244.447C621.435 244.447 626.937 249.321 626.937 257.673V262.12C626.937 270.586 621.435 275.404 613.995 275.404C606.413 275.404 601.026 270.672 601.026 262.12V257.702C601.026 249.606 606.499 244.447 613.995 244.447ZM614.024 248.837C609.206 248.837 606.185 252.656 606.185 258.129V261.75C606.185 267.308 609.007 271.042 614.024 271.042C618.984 271.042 621.749 267.308 621.749 261.75V258.129C621.749 252.656 618.841 248.837 614.024 248.837ZM649.655 275.375C645.522 275.375 642.443 273.636 641.047 270.472H640.79V284.867H635.631V244.903H640.591V249.692H640.847C642.073 246.471 645.522 244.476 649.826 244.476C656.867 244.476 661.285 249.435 661.285 257.331V262.491C661.285 270.444 656.81 275.375 649.655 275.375ZM648.6 270.957C653.332 270.957 656.097 267.536 656.097 261.55V258.358C656.097 252.343 653.332 248.894 648.458 248.894C643.726 248.894 640.79 252.2 640.79 257.616V262.833C640.79 267.65 643.983 270.957 648.6 270.957ZM671.661 245.017V237.492H676.764V245.017H683.548V249.207H676.764V266.481C676.764 270.016 677.961 270.928 681.609 270.928C682.35 270.928 683.491 270.843 683.975 270.786V274.919C683.548 275.033 681.438 275.175 680.298 275.175C673.172 275.175 671.633 272.439 671.633 266.51V249.207H667.043V245.017H671.661ZM691.615 235.696C691.615 233.615 693.182 232.133 695.235 232.133C697.401 232.133 698.969 233.615 698.969 235.696C698.969 237.748 697.401 239.231 695.235 239.231C693.182 239.231 691.615 237.748 691.615 235.696ZM692.698 274.919V244.932H697.857V274.919H692.698ZM720.262 244.447C727.702 244.447 733.204 249.321 733.204 257.673V262.12C733.204 270.586 727.702 275.404 720.262 275.404C712.68 275.404 707.292 270.672 707.292 262.12V257.702C707.292 249.606 712.765 244.447 720.262 244.447ZM720.291 248.837C715.473 248.837 712.452 252.656 712.452 258.129V261.75C712.452 267.308 715.274 271.042 720.291 271.042C725.251 271.042 728.016 267.308 728.016 261.75V258.129C728.016 252.656 725.108 248.837 720.291 248.837ZM741.869 274.919V244.932H746.971V250.376H747.257C747.998 248.01 750.079 244.447 756.35 244.447C762.393 244.447 766.526 247.725 766.526 254.452V274.919H761.367V256.077C761.367 251.374 758.944 248.951 754.867 248.951C749.594 248.951 747.029 253.027 747.029 258.215V274.919H741.869Z" fill="white"/>
<path d="M1045.84 195.522V224.768H1038.27V195.522H1011.65V187.89H1038.27V160.183H1045.84V187.89H1072.52V195.522H1045.84Z" fill="black"/>
<rect x="1116.97" y="53.5135" width="282.162" height="267.568" rx="24.3243" fill="black"/>
<rect x="1119.41" y="41.3514" width="277.297" height="262.703" rx="21.8919" fill="url(#paint4_linear_365_397)" stroke="url(#paint5_linear_365_397)" stroke-width="4.86486"/>
<path d="M1231.89 218.919H1222.01L1253.44 131.437H1262.61L1294.03 218.919H1284.16L1274.86 191.597H1241.19L1231.89 218.919ZM1258.18 143.046H1257.8L1243.82 183.836H1272.16L1258.18 143.046Z" fill="white"/>
<defs>
<linearGradient id="paint0_linear_365_397" x1="233.514" y1="68.1081" x2="233.514" y2="306.487" gradientUnits="userSpaceOnUse">
<stop stop-color="#404040"/>
<stop offset="1" stop-color="#222222"/>
</linearGradient>
<linearGradient id="paint1_linear_365_397" x1="233.514" y1="38.9189" x2="233.514" y2="306.487" gradientUnits="userSpaceOnUse">
<stop stop-color="#404040"/>
<stop offset="1" stop-color="#303030"/>
</linearGradient>
<linearGradient id="paint2_linear_365_397" x1="772.541" y1="68.1081" x2="772.54" y2="306.487" gradientUnits="userSpaceOnUse">
<stop stop-color="#404040"/>
<stop offset="1" stop-color="#222222"/>
</linearGradient>
<linearGradient id="paint3_linear_365_397" x1="772.541" y1="38.9189" x2="772.541" y2="306.487" gradientUnits="userSpaceOnUse">
<stop stop-color="#404040"/>
<stop offset="1" stop-color="#303030"/>
</linearGradient>
<linearGradient id="paint4_linear_365_397" x1="1258.05" y1="68.1081" x2="1258.05" y2="306.487" gradientUnits="userSpaceOnUse">
<stop stop-color="#404040"/>
<stop offset="1" stop-color="#222222"/>
</linearGradient>
<linearGradient id="paint5_linear_365_397" x1="1258.05" y1="38.9189" x2="1258.05" y2="306.487" gradientUnits="userSpaceOnUse">
<stop stop-color="#404040"/>
<stop offset="1" stop-color="#303030"/>
</linearGradient>
</defs>
</svg>
