<svg width="468" height="360" viewBox="0 0 468 360" fill="none" xmlns="http://www.w3.org/2000/svg">
<rect width="467.027" height="360" rx="48.6486" fill="#CBCBCB"/>
<rect x="38.9189" y="53.5135" width="389.189" height="267.568" rx="24.3243" fill="black"/>
<rect x="41.3514" y="41.3514" width="384.324" height="262.703" rx="21.8919" fill="url(#paint0_linear_365_453)" stroke="url(#paint1_linear_365_453)" stroke-width="4.86486"/>
<path d="M360.855 85.4392L381.521 64.2884C382.12 63.6613 382.861 63.3193 383.688 63.3193C384.514 63.3478 385.284 63.6613 385.883 64.317L406.549 85.4677C407.09 85.9808 407.375 86.6649 407.375 87.4631C407.375 89.0879 406.15 90.3421 404.525 90.3421C403.755 90.3421 403.014 90.0285 402.473 89.4869L383.716 70.246L364.903 89.4869C364.39 90.0285 363.649 90.3421 362.851 90.3421C361.254 90.3421 360 89.0879 360 87.4631C360 86.6649 360.314 85.9808 360.855 85.4392Z" fill="white"/>
<path d="M61.9986 262.32V257.417C61.9986 249.549 66.8159 244.447 74.5123 244.447C82.0091 244.447 85.8858 249.065 86.0283 253.597H80.9829C80.6694 251.83 79.2726 248.951 74.5978 248.951C69.6949 248.951 67.158 252.343 67.158 257.588V262.377C67.158 267.593 69.98 270.9 74.5978 270.9C79.0161 270.9 80.6694 268.876 81.211 266.595H86.2279C86.0568 271.014 82.4367 275.404 74.5123 275.404C66.7874 275.404 61.9986 270.358 61.9986 262.32ZM105.925 244.447C113.365 244.447 118.866 249.321 118.866 257.673V262.12C118.866 270.586 113.365 275.404 105.925 275.404C98.3425 275.404 92.9551 270.672 92.9551 262.12V257.702C92.9551 249.606 98.428 244.447 105.925 244.447ZM105.953 248.837C101.136 248.837 98.1145 252.656 98.1145 258.129V261.75C98.1145 267.308 100.936 271.042 105.953 271.042C110.913 271.042 113.678 267.308 113.678 261.75V258.129C113.678 252.656 110.771 248.837 105.953 248.837ZM127.532 274.919V244.932H132.634V250.376H132.919C133.66 248.01 135.741 244.447 142.012 244.447C148.055 244.447 152.189 247.725 152.189 254.452V274.919H147.029V256.077C147.029 251.374 144.606 248.951 140.53 248.951C135.257 248.951 132.691 253.027 132.691 258.215V274.919H127.532ZM163.819 245.017V237.492H168.921V245.017H175.705V249.207H168.921V266.481C168.921 270.016 170.118 270.928 173.767 270.928C174.508 270.928 175.648 270.843 176.133 270.786V274.919C175.705 275.033 173.596 275.175 172.456 275.175C165.329 275.175 163.79 272.439 163.79 266.51V249.207H159.201V245.017H163.819ZM184.599 274.919V244.932H189.758V249.549H190.015C190.756 247.583 192.922 244.476 198.224 244.476C198.88 244.476 199.507 244.533 200.106 244.618V249.321C199.621 249.207 198.595 249.15 197.683 249.15C192.409 249.15 189.787 252.314 189.787 256.391V274.919H184.599ZM218.406 244.447C225.846 244.447 231.347 249.321 231.347 257.673V262.12C231.347 270.586 225.846 275.404 218.406 275.404C210.824 275.404 205.436 270.672 205.436 262.12V257.702C205.436 249.606 210.909 244.447 218.406 244.447ZM218.434 248.837C213.617 248.837 210.595 252.656 210.595 258.129V261.75C210.595 267.308 213.417 271.042 218.434 271.042C223.394 271.042 226.159 267.308 226.159 261.75V258.129C226.159 252.656 223.252 248.837 218.434 248.837ZM240.184 274.919V233.957H245.343V274.919H240.184Z" fill="white"/>
<defs>
<linearGradient id="paint0_linear_365_453" x1="233.514" y1="68.1081" x2="233.514" y2="306.487" gradientUnits="userSpaceOnUse">
<stop stop-color="#404040"/>
<stop offset="1" stop-color="#222222"/>
</linearGradient>
<linearGradient id="paint1_linear_365_453" x1="233.514" y1="38.9189" x2="233.514" y2="306.487" gradientUnits="userSpaceOnUse">
<stop stop-color="#404040"/>
<stop offset="1" stop-color="#303030"/>
</linearGradient>
</defs>
</svg>
