<svg width="1085" height="361" viewBox="0 0 1085 361" fill="none" xmlns="http://www.w3.org/2000/svg">
<rect y="0.955139" width="1084.05" height="360.045" rx="48.6547" fill="#CBCBCB"/>
<rect x="38.9238" y="54.4753" width="389.238" height="267.601" rx="24.3274" fill="black"/>
<rect x="41.3565" y="42.3116" width="384.372" height="262.735" rx="21.8946" fill="url(#paint0_linear_365_207)" stroke="url(#paint1_linear_365_207)" stroke-width="4.86547"/>
<path d="M376.599 74.3743V83.2405H372.779C368.445 83.2405 364.91 86.6331 364.91 90.9949C364.91 95.3567 368.445 98.8918 372.779 98.8918C377.112 98.8918 380.619 95.3567 380.619 90.9949V87.2317H389.371V90.9949C389.371 95.3567 392.877 98.8918 397.211 98.8918C401.572 98.8918 405.079 95.3567 405.079 90.9949C405.079 86.6331 401.572 83.2405 397.211 83.2405H393.419V74.3743H397.211C401.572 74.3743 405.079 70.9818 405.079 66.62C405.079 62.2582 401.572 58.7231 397.211 58.7231C392.877 58.7231 389.371 62.2582 389.371 66.62V70.3831H380.619V66.62C380.619 62.2582 377.112 58.7231 372.779 58.7231C368.445 58.7231 364.91 62.2582 364.91 66.62C364.91 70.9818 368.445 74.3743 372.779 74.3743H376.599ZM372.807 70.4402C370.698 70.4402 368.987 68.7296 368.987 66.62C368.987 64.5104 370.698 62.7998 372.779 62.7998C374.86 62.7998 376.57 64.5104 376.57 66.6485V70.4402H372.807ZM397.182 70.4402H393.419V66.6485C393.419 64.5104 395.158 62.7998 397.211 62.7998C399.292 62.7998 401.031 64.5104 401.031 66.62C401.031 68.7296 399.292 70.4402 397.182 70.4402ZM380.647 83.2975V74.3458H389.371V83.2975H380.647ZM372.807 87.1462H376.57V90.9664C376.57 93.076 374.86 94.815 372.779 94.815C370.698 94.815 368.987 93.076 368.987 90.9949C368.987 88.8852 370.698 87.1462 372.807 87.1462ZM397.182 87.1462C399.292 87.1462 401.031 88.8852 401.031 90.9949C401.031 93.076 399.292 94.815 397.211 94.815C395.158 94.815 393.419 93.076 393.419 90.9664V87.1462H397.182Z" fill="white"/>
<path d="M62.0062 263.301V258.397C62.0062 250.529 66.8242 245.426 74.5215 245.426C82.0193 245.426 85.8965 250.044 86.039 254.577H80.993C80.6794 252.809 79.2825 249.93 74.6071 249.93C69.7036 249.93 67.1663 253.323 67.1663 258.568V263.358C67.1663 268.575 69.9887 271.882 74.6071 271.882C79.0259 271.882 80.6794 269.858 81.2211 267.577H86.2386C86.0675 271.996 82.4469 276.386 74.5215 276.386C66.7957 276.386 62.0062 271.34 62.0062 263.301ZM105.938 245.426C113.379 245.426 118.881 250.301 118.881 258.654V263.101C118.881 271.568 113.379 276.386 105.938 276.386C98.3547 276.386 92.9666 271.654 92.9666 263.101V258.682C92.9666 250.586 98.4403 245.426 105.938 245.426ZM105.967 249.816C101.149 249.816 98.1267 253.636 98.1267 259.11V262.73C98.1267 268.29 100.949 272.024 105.967 272.024C110.927 272.024 113.692 268.29 113.692 262.73V259.11C113.692 253.636 110.784 249.816 105.967 249.816ZM127.548 275.901V245.91H132.651V250.7H132.936C133.62 248.562 135.53 245.426 141.061 245.426C145.594 245.426 148.444 247.849 149.385 251.07H149.613C150.839 248.134 153.69 245.426 158.764 245.426C164.894 245.426 168.628 248.79 168.628 254.805V275.901H163.468V256.259C163.468 252.41 161.302 249.901 157.254 249.901C153.519 249.901 150.64 252.781 150.64 256.886V275.901H145.536V256.458C145.536 252.553 143.113 249.901 139.179 249.901C135.416 249.901 132.708 252.724 132.708 256.829V275.901H127.548ZM178.635 275.901V245.91H183.738V250.7H184.023C184.707 248.562 186.617 245.426 192.148 245.426C196.681 245.426 199.532 247.849 200.473 251.07H200.701C201.927 248.134 204.777 245.426 209.852 245.426C215.981 245.426 219.716 248.79 219.716 254.805V275.901H214.556V256.259C214.556 252.41 212.389 249.901 208.341 249.901C204.606 249.901 201.727 252.781 201.727 256.886V275.901H196.624V256.458C196.624 252.553 194.201 249.901 190.267 249.901C186.503 249.901 183.795 252.724 183.795 256.829V275.901H178.635ZM237.819 276.386C232.003 276.386 228.012 272.737 228.012 267.178C228.012 261.932 231.661 258.369 238.56 258.369H246.4V255.404C246.4 251.555 243.977 249.787 240.128 249.787C236.336 249.787 234.74 251.27 234.141 253.351H229.152C229.608 248.276 233.6 245.426 240.299 245.426C246.486 245.426 251.589 248.077 251.589 255.432V275.901H246.628V271.91H246.4C244.946 274.333 242.238 276.386 237.819 276.386ZM239.244 272.053C243.293 272.053 246.4 269.316 246.4 265.638V262.303H238.988C234.94 262.303 233.286 264.327 233.286 267.007C233.286 270.485 236.137 272.053 239.244 272.053ZM261.595 275.901V245.91H266.698V251.355H266.983C267.724 248.989 269.806 245.426 276.077 245.426C282.121 245.426 286.255 248.704 286.255 255.432V275.901H281.095V257.057C281.095 252.353 278.672 249.93 274.595 249.93C269.321 249.93 266.755 254.007 266.755 259.195V275.901H261.595ZM306.439 245.454C310.658 245.454 313.937 247.307 315.134 250.358H315.391V234.934H320.551V275.901H315.59V271.112H315.334C314.45 274.162 310.715 276.329 306.325 276.329C299.34 276.329 294.808 271.454 294.808 263.814V257.998C294.808 250.358 299.455 245.454 306.439 245.454ZM307.494 249.873C302.819 249.873 299.996 253.294 299.996 259.053V262.702C299.996 268.518 302.876 271.91 307.636 271.91C312.34 271.91 315.391 268.575 315.391 263.186V257.998C315.391 253.237 312.055 249.873 307.494 249.873Z" fill="white"/>
<path d="M506.87 196.496V225.746H499.301V196.496H472.681V188.863H499.301V161.152H506.87V188.863H533.554V196.496H506.87Z" fill="black"/>
<rect x="578.009" y="54.4753" width="282" height="267.404" rx="24.3274" fill="black"/>
<rect x="580.442" y="42.3116" width="277.135" height="262.538" rx="21.8946" fill="url(#paint2_linear_365_207)" stroke="url(#paint3_linear_365_207)" stroke-width="4.86547"/>
<circle cx="719.108" cy="180.978" r="90.0112" fill="url(#paint4_linear_365_207)" stroke="black" stroke-width="4.86547"/>
<path d="M958.211 224.27L935.375 201.371L912.476 224.27L906.895 218.626L929.731 195.79L906.895 172.891L912.476 167.31L935.375 190.21L958.211 167.31L963.791 172.891L940.956 195.79L963.791 218.626L958.211 224.27ZM997.724 186.553V178.151H1006.51C1016.71 178.151 1023.96 171.287 1023.96 161.858C1023.89 152.814 1016.97 146.399 1006.64 146.399C996.441 146.399 990.09 152.685 989.577 159.42H980.469C980.789 149.157 989.449 138.189 1006.58 138.06C1022.8 137.996 1033.2 147.81 1033.52 160.318C1033.84 172.827 1023.89 180.46 1017.03 181.55V182.127C1024.66 182.961 1036.27 189.183 1036.6 203.423C1036.85 218.305 1024.41 229.402 1006.38 229.402C989.641 229.402 978.929 219.844 978.352 207.721H987.268C988.038 215.162 995.735 221.063 1006.7 221.127C1019.15 221.191 1027.1 213.687 1027.04 203.552C1026.91 193.289 1018.63 186.553 1007.09 186.553H997.724Z" fill="black"/>
<defs>
<linearGradient id="paint0_linear_365_207" x1="233.543" y1="69.0717" x2="233.543" y2="307.48" gradientUnits="userSpaceOnUse">
<stop stop-color="#404040"/>
<stop offset="1" stop-color="#222222"/>
</linearGradient>
<linearGradient id="paint1_linear_365_207" x1="233.543" y1="39.8789" x2="233.543" y2="307.48" gradientUnits="userSpaceOnUse">
<stop stop-color="#404040"/>
<stop offset="1" stop-color="#303030"/>
</linearGradient>
<linearGradient id="paint2_linear_365_207" x1="719.009" y1="69.0502" x2="719.009" y2="307.283" gradientUnits="userSpaceOnUse">
<stop stop-color="#404040"/>
<stop offset="1" stop-color="#222222"/>
</linearGradient>
<linearGradient id="paint3_linear_365_207" x1="719.009" y1="39.8789" x2="719.009" y2="307.283" gradientUnits="userSpaceOnUse">
<stop stop-color="#404040"/>
<stop offset="1" stop-color="#303030"/>
</linearGradient>
<linearGradient id="paint4_linear_365_207" x1="719.108" y1="88.5336" x2="719.108" y2="273.421" gradientUnits="userSpaceOnUse">
<stop stop-color="#313131"/>
<stop offset="1" stop-color="#1E1E1E"/>
</linearGradient>
</defs>
</svg>
