<svg width="223" height="74" viewBox="0 0 223 74" fill="none" xmlns="http://www.w3.org/2000/svg">
<rect width="223" height="74" rx="10" fill="#CBCBCB"/>
<rect x="8" y="11" width="80" height="55" rx="5" fill="black"/>
<rect x="8.5" y="8.5" width="79" height="54" rx="4.5" fill="url(#paint0_linear_365_207)" stroke="url(#paint1_linear_365_207)"/>
<path d="M77.4023 15.0898V16.9121H76.6172C75.7266 16.9121 75 17.6094 75 18.5059C75 19.4023 75.7266 20.1289 76.6172 20.1289C77.5078 20.1289 78.2285 19.4023 78.2285 18.5059V17.7324H80.0273V18.5059C80.0273 19.4023 80.748 20.1289 81.6387 20.1289C82.5352 20.1289 83.2559 19.4023 83.2559 18.5059C83.2559 17.6094 82.5352 16.9121 81.6387 16.9121H80.8594V15.0898H81.6387C82.5352 15.0898 83.2559 14.3926 83.2559 13.4961C83.2559 12.5996 82.5352 11.873 81.6387 11.873C80.748 11.873 80.0273 12.5996 80.0273 13.4961V14.2695H78.2285V13.4961C78.2285 12.5996 77.5078 11.873 76.6172 11.873C75.7266 11.873 75 12.5996 75 13.4961C75 14.3926 75.7266 15.0898 76.6172 15.0898H77.4023ZM76.623 14.2812C76.1895 14.2812 75.8379 13.9297 75.8379 13.4961C75.8379 13.0625 76.1895 12.7109 76.6172 12.7109C77.0449 12.7109 77.3965 13.0625 77.3965 13.502V14.2812H76.623ZM81.6328 14.2812H80.8594V13.502C80.8594 13.0625 81.2168 12.7109 81.6387 12.7109C82.0664 12.7109 82.4238 13.0625 82.4238 13.4961C82.4238 13.9297 82.0664 14.2812 81.6328 14.2812ZM78.2344 16.9238V15.084H80.0273V16.9238H78.2344ZM76.623 17.7148H77.3965V18.5C77.3965 18.9336 77.0449 19.291 76.6172 19.291C76.1895 19.291 75.8379 18.9336 75.8379 18.5059C75.8379 18.0723 76.1895 17.7148 76.623 17.7148ZM81.6328 17.7148C82.0664 17.7148 82.4238 18.0723 82.4238 18.5059C82.4238 18.9336 82.0664 19.291 81.6387 19.291C81.2168 19.291 80.8594 18.9336 80.8594 18.5V17.7148H81.6328Z" fill="white"/>
<path d="M12.7441 53.4102V52.4023C12.7441 50.7852 13.7344 49.7363 15.3164 49.7363C16.8574 49.7363 17.6543 50.6855 17.6836 51.6172H16.6465C16.582 51.2539 16.2949 50.6621 15.334 50.6621C14.3262 50.6621 13.8047 51.3594 13.8047 52.4375V53.4219C13.8047 54.4941 14.3848 55.1738 15.334 55.1738C16.2422 55.1738 16.582 54.7578 16.6934 54.2891H17.7246C17.6895 55.1973 16.9453 56.0996 15.3164 56.0996C13.7285 56.0996 12.7441 55.0625 12.7441 53.4102ZM21.7734 49.7363C23.3027 49.7363 24.4336 50.7383 24.4336 52.4551V53.3691C24.4336 55.1094 23.3027 56.0996 21.7734 56.0996C20.2148 56.0996 19.1074 55.127 19.1074 53.3691V52.4609C19.1074 50.7969 20.2324 49.7363 21.7734 49.7363ZM21.7793 50.6387C20.7891 50.6387 20.168 51.4238 20.168 52.5488V53.293C20.168 54.4355 20.748 55.2031 21.7793 55.2031C22.7988 55.2031 23.3672 54.4355 23.3672 53.293V52.5488C23.3672 51.4238 22.7695 50.6387 21.7793 50.6387ZM26.2148 56V49.8359H27.2637V50.8203H27.3223C27.4629 50.3809 27.8555 49.7363 28.9922 49.7363C29.9238 49.7363 30.5098 50.2344 30.7031 50.8965H30.75C31.002 50.293 31.5879 49.7363 32.6309 49.7363C33.8906 49.7363 34.6582 50.4277 34.6582 51.6641V56H33.5977V51.9629C33.5977 51.1719 33.1523 50.6562 32.3203 50.6562C31.5527 50.6562 30.9609 51.248 30.9609 52.0918V56H29.9121V52.0039C29.9121 51.2012 29.4141 50.6562 28.6055 50.6562C27.832 50.6562 27.2754 51.2363 27.2754 52.0801V56H26.2148ZM36.7148 56V49.8359H37.7637V50.8203H37.8223C37.9629 50.3809 38.3555 49.7363 39.4922 49.7363C40.4238 49.7363 41.0098 50.2344 41.2031 50.8965H41.25C41.502 50.293 42.0879 49.7363 43.1309 49.7363C44.3906 49.7363 45.1582 50.4277 45.1582 51.6641V56H44.0977V51.9629C44.0977 51.1719 43.6523 50.6562 42.8203 50.6562C42.0527 50.6562 41.4609 51.248 41.4609 52.0918V56H40.4121V52.0039C40.4121 51.2012 39.9141 50.6562 39.1055 50.6562C38.332 50.6562 37.7754 51.2363 37.7754 52.0801V56H36.7148ZM48.8789 56.0996C47.6836 56.0996 46.8633 55.3496 46.8633 54.207C46.8633 53.1289 47.6133 52.3965 49.0312 52.3965H50.6426V51.7871C50.6426 50.9961 50.1445 50.6328 49.3535 50.6328C48.5742 50.6328 48.2461 50.9375 48.123 51.3652H47.0977C47.1914 50.3223 48.0117 49.7363 49.3887 49.7363C50.6602 49.7363 51.709 50.2812 51.709 51.793V56H50.6895V55.1797H50.6426C50.3438 55.6777 49.7871 56.0996 48.8789 56.0996ZM49.1719 55.209C50.0039 55.209 50.6426 54.6465 50.6426 53.8906V53.2051H49.1191C48.2871 53.2051 47.9473 53.6211 47.9473 54.1719C47.9473 54.8867 48.5332 55.209 49.1719 55.209ZM53.7656 56V49.8359H54.8145V50.9551H54.873C55.0254 50.4688 55.4531 49.7363 56.7422 49.7363C57.9844 49.7363 58.834 50.4102 58.834 51.793V56H57.7734V52.127C57.7734 51.1602 57.2754 50.6621 56.4375 50.6621C55.3535 50.6621 54.8262 51.5 54.8262 52.5664V56H53.7656ZM62.9824 49.7422C63.8496 49.7422 64.5234 50.123 64.7695 50.75H64.8223V47.5801H65.8828V56H64.8633V55.0156H64.8105C64.6289 55.6426 63.8613 56.0879 62.959 56.0879C61.5234 56.0879 60.5918 55.0859 60.5918 53.5156V52.3203C60.5918 50.75 61.5469 49.7422 62.9824 49.7422ZM63.1992 50.6504C62.2383 50.6504 61.6582 51.3535 61.6582 52.5371V53.2871C61.6582 54.4824 62.25 55.1797 63.2285 55.1797C64.1953 55.1797 64.8223 54.4941 64.8223 53.3867V52.3203C64.8223 51.3418 64.1367 50.6504 63.1992 50.6504Z" fill="white"/>
<path d="M104.278 40.6323V46.644H102.722V40.6323H97.251V39.0635H102.722V33.3682H104.278V39.0635H109.762V40.6323H104.278Z" fill="black"/>
<rect x="119" y="11" width="58" height="55" rx="5" fill="black"/>
<rect x="119.5" y="8.5" width="57" height="54" rx="4.5" fill="url(#paint2_linear_365_207)" stroke="url(#paint3_linear_365_207)"/>
<circle cx="148" cy="37" r="18.5" fill="url(#paint4_linear_365_207)" stroke="black"/>
<path d="M197.139 46.3408L192.446 41.6343L187.739 46.3408L186.592 45.1807L191.286 40.4873L186.592 35.7808L187.739 34.6338L192.446 39.3403L197.139 34.6338L198.286 35.7808L193.593 40.4873L198.286 45.1807L197.139 46.3408ZM205.26 38.5889V36.8618H207.066C209.163 36.8618 210.652 35.4512 210.652 33.5132C210.639 31.6543 209.215 30.3359 207.093 30.3359C204.997 30.3359 203.691 31.6279 203.586 33.0122H201.714C201.78 30.9028 203.56 28.6484 207.08 28.6221C210.415 28.6089 212.551 30.626 212.617 33.1968C212.683 35.7676 210.639 37.3364 209.229 37.5605V37.6792C210.797 37.8506 213.184 39.1294 213.25 42.0562C213.302 45.1147 210.745 47.3955 207.04 47.3955C203.599 47.3955 201.397 45.4312 201.279 42.9395H203.111C203.27 44.4688 204.852 45.6816 207.106 45.6948C209.664 45.708 211.298 44.1655 211.285 42.0825C211.259 39.9731 209.558 38.5889 207.185 38.5889H205.26Z" fill="black"/>
<defs>
<linearGradient id="paint0_linear_365_207" x1="48" y1="14" x2="48" y2="63" gradientUnits="userSpaceOnUse">
<stop stop-color="#404040"/>
<stop offset="1" stop-color="#222222"/>
</linearGradient>
<linearGradient id="paint1_linear_365_207" x1="48" y1="8" x2="48" y2="63" gradientUnits="userSpaceOnUse">
<stop stop-color="#404040"/>
<stop offset="1" stop-color="#303030"/>
</linearGradient>
<linearGradient id="paint2_linear_365_207" x1="148" y1="14" x2="148" y2="63" gradientUnits="userSpaceOnUse">
<stop stop-color="#404040"/>
<stop offset="1" stop-color="#222222"/>
</linearGradient>
<linearGradient id="paint3_linear_365_207" x1="148" y1="8" x2="148" y2="63" gradientUnits="userSpaceOnUse">
<stop stop-color="#404040"/>
<stop offset="1" stop-color="#303030"/>
</linearGradient>
<linearGradient id="paint4_linear_365_207" x1="148" y1="18" x2="148" y2="56" gradientUnits="userSpaceOnUse">
<stop stop-color="#313131"/>
<stop offset="1" stop-color="#1E1E1E"/>
</linearGradient>
</defs>
</svg>
