<svg xmlns="http://www.w3.org/2000/svg" xml:space="preserve" fill-rule="evenodd" stroke-linejoin="round" stroke-miterlimit="2" clip-rule="evenodd" viewBox="0 0 2486 3513.5"><g fill="#fff" fill-rule="nonzero" clip-rule="nonzero" color="#000"><path d="M2.835 2.835h2480.3v3507.9H2.835z" style="font-feature-settings:normal;font-variant-alternates:normal;font-variant-caps:normal;font-variant-east-asian:normal;font-variant-ligatures:normal;font-variant-numeric:normal;font-variant-position:normal;font-variation-settings:normal;inline-size:0;isolation:auto;mix-blend-mode:normal;shape-margin:0;shape-padding:0;text-decoration-color:#000;text-decoration-line:none;text-decoration-style:solid;text-indent:0;text-orientation:mixed;text-transform:none;white-space:normal"/><path d="M2.834 0A2.835 2.835 0 0 0 0 2.834v3507.9a2.835 2.835 0 0 0 2.834 2.834h2480.3a2.835 2.835 0 0 0 2.836-2.834V2.834A2.835 2.835 0 0 0 2483.134 0zM5.67 5.67h2474.7v3502.2H5.67z" style="font-feature-settings:normal;font-variant-alternates:normal;font-variant-caps:normal;font-variant-east-asian:normal;font-variant-ligatures:normal;font-variant-numeric:normal;font-variant-position:normal;font-variation-settings:normal;inline-size:0;isolation:auto;mix-blend-mode:normal;shape-margin:0;shape-padding:0;text-decoration-color:#000;text-decoration-line:none;text-decoration-style:solid;text-indent:0;text-orientation:mixed;text-transform:none;white-space:normal"/></g><path fill-rule="nonzero" d="M480.37 1488.5v-109.17h-150.4v-1111h1559v150.4h-3.986c-2.487 0-4.697 1.373-5.92 3.639-1.066 2-4.815 7.558-8.328 12.34-7.025 9.516-7.38 10.097-38.283 64.009-11.682 20.42-23.799 40.616-26.838 44.878l-5.565 7.747h41.243l3.631-10.15c3.908-10.83 12.708-26.574 24.864-44.382 4.105-6.03 13.814-22.61 21.588-36.843s17.168-30.24 20.878-35.576c6.276-9.034 7.223-9.74 13.695-10.21 8.17-.588 12.077 1.914 10.617 6.796-.592 1.88-5.96 11.781-11.958 22.011-31.14 53.004-45.703 78.32-53.36 92.586l-8.406 15.767h35.402l2.723-7.084c1.46-3.895 6.907-13.537 12.037-21.427 11.801-18.084 43.453-72.414 54.267-93.15l8.249-15.736 9.906-.031c15.432-.052 15.274 1.937-2.723 29.336-5.289 8.059-9.63 15.278-9.63 16.047s-9.906 18.336-21.983 39.04c-12.116 20.705-23.8 41.102-25.93 45.325l-3.868 7.684h33.271l12.59-19.323c6.946-10.628 17.366-28.255 23.167-39.175 5.841-10.921 18.59-33.152 28.377-49.41l17.84-29.56h6.866c13.024 0 12.787 5.016-1.42 28.057-3.908 6.362-7.657 13.387-8.289 15.609-.67 2.226-5.762 10.956-11.367 19.406-5.564 8.45-17.366 28.464-26.206 44.475l-16.063 29.11 7.815.49 7.854.49.197 22.152c.158 12.184.553 20.333.908 18.108 2.013-11.86 10.853-31.179 21.51-46.844 9.393-13.845 28.772-46.524 46.058-77.632 8.643-15.538 19.457-33.733 24.075-40.43l8.367-12.184h8.84c6.907 0 8.96.58 9.354 2.649.277 1.452-3.512 8.576-8.446 15.83-4.933 7.25-8.998 14.27-8.998 15.597 0 1.33-3.907 8.035-8.722 14.899s-16.418 26.502-25.851 43.639c-9.393 17.137-19.891 35.33-23.364 40.43-3.434 5.103-11.446 19.465-17.721 31.917-14.88 29.257-20.8 38.567-23.838 37.395-2.053-.782-2.368 4.404-2.21 37.45.118 26.068.631 36.416 1.578 32.288 2.053-8.604 8.367-20.507 20.84-39.191 5.92-8.908 15.233-24.651 20.68-34.988s16.616-29.624 24.825-42.857c8.249-13.233 18.707-30.974 23.286-39.424 4.539-8.45 14.484-25.918 22.062-38.816s20.247-35.276 28.18-49.733c7.933-14.453 15.155-26.032 16.063-25.725.908.308 1.658 6.595 1.737 14.153.118 18.605-4.223 29.588-26.482 66.624-9.827 16.39-19.023 32.604-20.483 36.03-1.42 3.425-7.262 13.257-12.985 21.84-5.723 8.585-16.34 26.444-23.641 39.685-7.262 13.245-17.602 31.357-22.891 40.253-5.328 8.896-15.392 26.577-22.378 39.29-19.102 34.794-24.312 41.5-28.732 37.079-1.342-1.342-1.776 10.19-1.697 44.195.158 43.71.276 45.525 2.486 36.318 3.394-14.02 13.064-32.967 28.772-56.331 7.578-11.252 17.997-29.02 23.167-39.483 9.67-19.588 29.245-53.612 64.844-112.82 11.21-18.676 25.022-42.696 30.626-53.367l10.262-19.406-.67 19.406c-.79 24.647-1.777 27.106-27.39 69.813-11.13 18.53-23.72 40.24-27.983 48.245-4.302 8.004-11.919 21.107-16.93 29.11-5.053 8.005-14.84 25.063-21.708 37.905-14.524 27.007-17.958 32.659-28.416 47-4.223 5.783-13.3 21.66-20.168 35.289-6.867 13.628-13.498 25.168-14.76 25.646-1.856.71-2.21 7.605-2.093 38.295.119 26.542.592 35.588 1.658 31.1 2.013-8.683 9.393-22.753 20.641-39.511 5.21-7.752 11.998-19.165 15.076-25.366 3.079-6.2 8.17-15.278 11.288-20.172 3.118-4.89 12.038-20.54 19.812-34.771s18.234-32.06 23.286-39.621c5.012-7.562 12.866-21.387 17.405-30.73 4.5-9.337 15.155-27.894 23.601-41.238 8.446-13.34 17.84-28.626 20.878-33.961l5.486-9.701.947 29.624-8.722 18.34c-4.776 10.088-15.116 29.257-22.97 42.6-7.854 13.34-19.142 32.992-25.1 43.663-5.921 10.676-17.682 31.053-26.089 45.285s-18.826 32.426-23.128 40.43c-4.341 8.004-10.34 17.468-13.34 21.024-3.039 3.56-11.01 17.385-17.72 30.729-15.512 30.698-18.353 34.167-21.51 26.277-.909-2.285-1.422 13.49-1.343 42.455.08 25.35.434 44.27.79 42.048 2.644-15.751 10.182-31.2 29.442-60.274 8.05-12.211 16.892-26.593 19.615-31.964 2.723-5.372 11.919-21.928 20.483-36.795s21.39-37.217 28.456-49.673c7.104-12.452 20.68-36.105 30.232-52.558 9.55-16.454 20.404-35.378 24.154-42.048l6.788-12.128-.632 19.406c-.828 24.892-2.88 30.504-23.049 63.23-8.722 14.145-21.707 36.27-28.85 49.168s-27.548 47.467-45.308 76.819c-17.8 29.352-37.967 64.229-44.835 77.502-6.906 13.269-13.656 24.77-15.076 25.55-2.25 1.264-2.525 11.162-2.407 90.693.158 76.81.474 88.193 2.29 81.535 3.314-11.994 11.918-28.941 27.784-54.528 7.972-12.898 20.602-34.727 28.022-48.517 15.787-29.296 27.311-48.616 40.927-68.495 5.368-7.878 12.077-19.52 14.88-25.88 2.762-6.354 12.944-24.611 22.535-40.575 9.63-15.96 18.865-31.972 20.483-35.58l3-6.556.039 14.662c.04 24.785-5.328 43.173-16.655 56.66-6.75 8.09-18.036 26.473-31.1 50.777-6.907 12.898-15.511 28.18-19.063 33.961s-13.853 23.613-22.891 39.625c-9.078 16.008-21.904 37.841-28.574 48.517-6.67 10.672-16.774 28.424-22.496 39.447-5.723 11.027-12.393 22.2-14.84 24.837l-4.46 4.791.158 38.236c.118 34.108.355 37.277 2.091 29.344 2.447-10.972 5.881-17.622 21.036-40.817 6.512-10.017 13.458-22.516 15.392-27.78s5.565-12.18 8.012-15.366c6.986-9.041 16.38-24.77 30.074-50.269 6.946-12.898 17.721-31.455 23.917-41.239 6.236-9.783 18.865-31.108 28.14-47.388 9.235-16.276 19.891-34.313 23.641-40.075l6.828-10.478.947 29.806-8.406 16.28c-10.854 21.04-27.47 50.747-43.374 77.49-6.947 11.698-14.918 25.812-17.681 31.361-2.803 5.553-11.682 20.696-19.734 33.654-8.012 12.957-19.181 31.7-24.746 41.658-5.565 9.954-11.958 21.008-14.208 24.568-2.21 3.556-8.644 15.376-14.248 26.265-11.011 21.391-13.892 25.16-16.3 21.34-.908-1.424-1.421 13.628-1.342 38.918.118 28.2.592 38.938 1.578 33.962 2.053-10.696 12.63-30.804 26.522-50.435 6.71-9.503 18.115-28.424 25.338-42.048s22.3-40.217 33.508-59.094c11.248-18.88 24.391-41.784 29.285-50.9 11.13-20.737 40.256-71.097 42.348-73.264 1.027-1.05 1.421 4.622 1.027 16.174-.632 21.403-2.645 26.59-24.391 62.697-7.894 13.14-17.13 29.9-20.523 37.253-3.395 7.35-11.603 21.711-18.234 31.91-6.63 10.197-18.865 30.187-27.114 44.42-8.289 14.231-18.51 31.332-22.694 38.006s-10.932 19.173-14.92 27.777c-13.418 28.677-22.732 39.294-29.52 33.658-2.132-1.764-2.408 8.719-2.408 89.574v91.576h-1515.4v-109.17zm1476.5 70.35V590.12H519.17v968.73zm-641.14-84.179c-39.743-6.204-66.423-30.812-74.435-68.696-3.513-16.497-3.513-179 0-195.64 5.723-27.426 24.391-50.916 48.505-61.111 18.55-7.854 51.465-10.226 71.199-5.13 32.837 8.473 57.188 32.666 64.608 64.204 3.592 15.088 3.552 184.86-.04 199.98-7.262 30.784-32.008 55.901-63.029 63.988-12.038 3.134-34.692 4.298-46.808 2.404zm34.336-61.131c2.723-1.926 6.433-6.634 8.288-10.467 3.315-6.804 3.394-9.074 3.394-94.662 0-83.848-.158-87.968-3.157-93.896-3.67-7.14-11.445-14.24-17.287-15.7-6.67-1.673-19.97.355-24.51 3.737-2.328 1.753-5.92 6.335-7.932 10.182l-3.71 7.002v176.7l3.631 7.12c2.013 3.919 5.604 8.544 7.972 10.285 8.723 6.346 24.193 6.204 33.31-.304zm190.23 61.316c-34.849-5.533-60.661-27.528-72.264-61.561-3.552-10.447-3.552-11.292-4.065-138.13-.355-102.87-.08-127.89 1.618-128.95 1.145-.73 15.274-1.338 31.416-1.35 22.378-.02 29.72.482 31.061 2.116 1.263 1.503 1.934 39.384 2.25 127.36.434 121.89.513 125.36 3.67 130.71 6.078 10.297 16.971 15.325 28.101 12.969 7.775-1.65 13.38-6.256 17.602-14.453l3.631-7.12v-123.86c0-94.18.474-124.33 1.934-125.81 1.381-1.366 10.617-1.938 31.218-1.938 20.602 0 29.837.572 31.218 1.938 3 3.011 2.644 238.5-.394 255.53-6.078 33.918-29.324 60.057-62.082 69.79-10.498 3.114-33.705 4.542-44.914 2.758zm-916.65-5.896c-1.796-4.677-1.12-317.61.69-321 1.564-2.917 3.667-3.126 31.216-3.126 20.819 0 30.109.572 31.479 1.938 1.476 1.48 1.941 33.677 1.941 135.04v133.1h51.426c37.845 0 51.943.513 53.371 1.941 2.045 2.045 2.874 47.112.96 52.104-.88 2.29-9.926 2.558-85.541 2.558s-84.665-.268-85.541-2.558zm194.7-1.14c0-4.496 68.752-318.78 70.275-321.24 1.693-2.744 69.506-2.373 71.799.39 2.08 2.506 69.802 312.77 69.802 319.79v4.763h-32.264c-17.737 0-32.616-.592-33.066-1.318-.446-.726-2.325-10.368-4.172-21.427-1.847-11.063-3.765-22.113-4.262-24.56l-.9-4.448h-32.217c-17.721 0-32.225.549-32.233 1.216-.047 3.572-8.02 47.53-8.872 48.912-.62 1.002-13.095 1.626-32.446 1.626h-31.443zm127.67-101.83c-.229-8.617-21.916-126.55-23.274-126.55s-21.746 117.99-21.865 126.55c-.047 3.602.174 3.638 22.591 3.638 22.433 0 22.642-.032 22.548-3.639m144.08 102.4c-1.066-2.002-1.658-25.497-1.658-65.169v-62.038l-33.192-96.067c-18.273-52.839-32.876-97.018-32.402-98.178 1.145-3.023 64.41-3.055 66.897-.032.948 1.14 7.657 24.975 14.88 52.965s13.852 53.715 14.76 57.164c1.026 3.982 2.21 5.707 3.158 4.728.868-.852 8.13-26.952 16.182-58.005s15.51-57.002 16.537-57.665c1.065-.663 15.826-1.22 32.837-1.231 22.852-.016 31.337.501 32.52 1.993 1.066 1.397-8.88 32.032-32.125 99.058l-33.666 97.034-.04 62.346c-.04 46.287-.552 62.843-1.973 64.284-1.38 1.366-10.696 1.942-31.495 1.942-27.548 0-29.64-.213-31.218-3.13zm655.71 1.14c-.434-1.133-.947-61.734-1.184-134.67l-.395-132.61-31.534-.9c-17.366-.493-31.732-1.038-31.968-1.212-.276-.173-.276-12.507 0-27.406l.434-27.086 96.221-.422c89.038-.39 96.38-.217 98.234 2.328 1.421 1.899 2.053 9.907 2.053 25.78 0 18.774-.474 23.495-2.566 25.567-2.13 2.136-7.538 2.542-33.942 2.542h-31.416l-.434 134.63-.395 134.63-31.179.442c-24.036.34-31.337-.028-31.929-1.618zm-1113.4-402.22c-1.125-2.108-1.673-64.68-1.673-191.29 0-167.68.272-188.55 2.518-191.75l2.518-3.596h97.5c92.404 0 97.642.154 100.18 2.956 2.28 2.526 2.675 7.262 2.675 32.253 0 21.656-.528 29.632-2.02 30.6-1.113.718-29.316 1.673-62.67 2.115l-60.645.809v92.183l35.485.438c30.169.37 35.927.833 38.409 3.078 2.6 2.353 2.924 5.676 2.924 29.995 0 15.76-.71 28.673-1.677 30.476-1.575 2.945-3.738 3.13-36.791 3.154-19.315.012-36.037.608-37.166 1.322-1.587 1.01-1.95 11.572-1.614 47.282l.43 45.979 60.503.422c41.373.292 61.19.995 62.67 2.222 2.94 2.443 3.145 59.607.22 62.532-1.467 1.464-26.114 1.938-101.02 1.938-96.303 0-99.13-.087-100.76-3.126zm313.98.296c-2.707-5.336-81.681-379.99-80.663-382.65.908-2.368 5.439-2.656 41.409-2.656 23.55 0 40.777.635 41.326 1.523.521.84 9.67 56.695 20.337 124.12s19.824 123.69 20.349 125.02c.766 1.954 1.212 1.796 2.277-.81.726-1.78 9.417-57.088 19.323-122.91s18.707-121.31 19.497-123.31c1.5-3.634 1.54-3.638 41.046-3.638 23.68 0 39.941.628 40.533 1.559.868 1.377-78.46 377.37-80.986 383.98-.868 2.297-5.802 2.6-42 2.6-37.436 0-41.138-.244-42.448-2.829zm204.55 1.752c-.592-.592-1.066-87.534-1.066-193.2 0-188.29.08-192.16 3.118-193.8 2.053-1.101 36.39-1.673 100.17-1.673h97.05l2.526 3.595c3.75 5.324 3.71 58.052-.039 61.786-2.21 2.222-10.182 2.542-63.068 2.542h-60.542v93.8h36.35c34.256 0 36.427.178 38.006 3.127 2.447 4.59 2.21 58.755-.276 61.24-1.381 1.382-11.524 1.938-35.441 1.938-18.431 0-34.652.442-36.073.983-2.25.864-2.565 6.591-2.565 47.708v46.73h121.12l2.526 3.59c2.012 2.901 2.486 8.723 2.486 30.027 0 15.128-.71 27.769-1.658 29.56-1.618 3.04-4.46 3.126-101.63 3.126-54.938 0-100.4-.485-101-1.077zm245.84.028c-.592-.608-1.105-87.562-1.105-193.23v-192.13l3.394-1.815c2.408-1.287 22.26-1.615 68.357-1.13 54.662.573 66.463 1.114 74.632 3.423 12.985 3.67 23.878 9.18 35.52 17.965 29.68 22.413 45.072 63.696 41.046 109.96-2.96 33.665-17.01 59.73-43.966 81.476-2.526 2.032-4.262 4.558-3.868 5.612 6.868 18.526 51.505 166.52 50.794 168.36-.868 2.238-5.801 2.561-38.836 2.561-28.337 0-38.283-.509-39.506-2.02-.908-1.113-11.248-36.59-22.97-78.843-11.76-42.25-22.102-77.727-23.049-78.84-2.289-2.787-19.734-2.668-22.062.146-1.263 1.511-1.934 25.93-2.25 80.458l-.394 78.29-37.296.435c-20.523.237-37.81-.067-38.441-.675zm121.72-224.27c8.09-4.144 16.734-15.404 19.852-25.898 2.96-9.973 2.487-32.655-.868-42.486-3.552-10.392-12.67-21.202-21.233-25.073-8.96-4.077-40.414-4.448-41.954-.493-1.342 3.497-1.263 95.285.118 96.63.592.597 9.117 1.058 18.984 1.035 15.392-.036 18.944-.565 25.101-3.714zm196.11 223.38c-1.46-1.452-1.934-20.527-1.934-75.872v-73.93l-39.625-114.51c-21.786-62.982-39.625-116.09-39.625-118.03 0-1.934 1.145-3.959 2.566-4.5s18.352-.982 37.69-.982c26.878 0 35.837.513 38.087 2.175 2.21 1.598 7.577 19.962 20.404 69.679 9.59 37.13 17.839 67.93 18.392 68.448.513.517 1.262.608 1.657.201.395-.403 8.722-31.234 18.471-68.51 12.67-48.498 18.51-68.378 20.562-69.885 2.17-1.575 11.722-2.108 38.046-2.108 19.3 0 36.27.442 37.691.983 1.381.54 2.565 2.25 2.565 3.797s-17.839 54.35-39.625 117.34l-39.625 114.53v74.613c0 55.877-.513 75.102-1.933 76.554-1.421 1.39-11.88 1.942-36.902 1.942s-35.481-.553-36.862-1.942zm-991.56-524.06c1.243-3.78 6.496-13.328 11.67-21.214 13.202-20.116 57.74-97.63 57.74-100.49 0-.442-6.773-.805-15.045-.805-14.883 0-15.104.055-20.006 5.253-2.727 2.893-8.087 10.715-11.915 17.385-3.828 6.674-13.087 22.32-20.574 34.774-7.49 12.452-16.833 29.553-20.768 38.003s-9.354 19.548-12.045 24.663l-4.894 9.298h33.571zm66.842-14.555c6.046-11.785 15.566-27.978 21.15-35.986 5.585-8.004 16.15-25.105 23.475-38.003 7.329-12.898 14.749-25.815 16.493-28.708l3.17-5.253h-35.119l-8.296 11.086c-8.142 10.877-15.072 22.812-15.072 25.954 0 .872-7.163 13.498-15.925 28.049-16.963 28.183-35.824 61.47-35.824 63.226 0 .584 7.862 1.062 17.476 1.062h17.476zm49.358 16.98c1.113-2.444 6.773-11.699 12.582-20.563 5.806-8.868 13.746-22.117 17.642-29.446 3.9-7.333 12.227-21.837 18.506-32.233 10.423-17.259 22.54-39.75 22.54-41.839 0-.466-7.621-.848-16.939-.848h-16.939l-2.696 5.253c-1.48 2.893-6.938 11.122-12.132 18.289-5.19 7.163-10.53 16.126-11.864 19.91-1.338 3.786-9.267 18.302-17.626 32.254-16.643 27.789-30.157 51.453-30.157 52.807 0 .477 7.886.864 17.527.864h17.531zm67.516-12.982c6.39-9.535 12.969-20.25 14.63-23.81 1.658-3.557 13.17-24.293 25.583-46.079s22.812-40.162 23.108-40.837-7.124-1.223-16.493-1.223h-17.034l-7.223 10.119c-3.97 5.564-9.756 15.684-12.858 22.488s-13.486 24.627-23.08 39.609c-17.883 27.927-31.32 51.552-31.368 55.14-.02 1.491 4.33 2.008 16.55 1.977l16.575-.044zm51.623 10.557c1.69-3.78 7.215-13.13 12.27-20.779 5.06-7.645 16.991-28.026 26.51-45.28 9.52-17.26 20.333-36.109 24.043-41.89s7.262-11.423 7.933-12.536c.986-1.57-2.644-2-16.221-1.93l-17.5.09-7.278 9.872c-8.773 11.903-14.382 22.023-14.48 26.127-.043 1.67-3.22 7.49-7.064 12.94-9.023 12.788-15.811 24.265-30.255 51.146-6.453 12.01-12.803 23.47-14.113 25.472l-2.384 3.638h35.46zm59.469-1.085c1.579-4.381 6.038-12.701 9.946-18.498 3.867-5.794 8.288-12.945 9.787-15.893 1.54-2.948 9.828-16.64 18.471-30.425 15.826-25.326 29.364-48.576 31.218-53.774.948-2.581-.434-2.83-15.668-2.83h-16.733l-8.683 11.71c-4.815 6.437-11.406 17.259-14.642 24.047-3.276 6.784-13.735 25.275-23.246 41.089-15.57 25.918-26.628 47.112-26.628 51.066 0 .805 7.499 1.464 16.663 1.464h16.675zm59.911-.533c2.605-4.669 6.867-11.678 9.512-15.578s7.538-12.266 10.854-18.601c3.315-6.33 13.97-24.971 23.68-41.429 9.709-16.454 19.655-33.373 22.102-37.6l4.46-7.68h-35.048l-10.182 13.758c-5.604 7.57-11.01 16.485-11.998 19.812-.986 3.327-7.34 15.147-14.129 26.265-13.143 21.596-36.27 62.204-38.007 66.778-.986 2.502.593 2.762 16.497 2.762l17.563-.004zm55.806 4.041c1.145-2.443 6.71-11.572 12.393-20.278 5.723-8.706 12.235-19.453 14.484-23.885 2.21-4.432 11.051-19.868 19.576-34.3 17.089-28.844 25.969-45.885 24.588-47.247-.474-.485-8.21-.402-17.168.182l-16.339 1.07-9.63 16.343c-5.328 8.986-10.222 18.147-10.854 20.357-.67 2.21-5.012 9.487-9.709 16.174-12.353 17.717-44.4 72.016-44.4 75.244 0 .434 7.893.789 17.523.789h17.523zm61.174-6.014c2.842-5.759 7.657-13.218 10.656-16.576 3.039-3.363 8.21-11.457 11.485-17.985s13.932-24.998 23.72-41.046 19.576-32.722 21.786-37.052l3.986-7.874h-33.942l-8.92 11.816c-4.893 6.504-9.945 14.859-11.247 18.569-1.342 3.71-8.17 16.406-15.234 28.207-11.998 20.014-31.89 55.116-38.086 67.145l-2.684 5.257h33.35zm65.002-8.735c5.289-10.557 12.827-23.838 16.774-29.514s14.484-22.828 23.444-38.113c8.959-15.29 18.036-30.57 20.128-33.96a653 653 0 0 0 5.052-8.19c.907-1.567-2.802-2.02-16.576-2.02h-17.8l-9.71 13.343c-5.367 7.337-10.221 15.155-10.773 17.373-.553 2.218-4.5 9.86-8.722 16.983-4.263 7.12-13.34 23.05-20.207 35.394-6.868 12.345-16.063 27.864-20.444 34.482-4.381 6.623-7.973 12.35-7.973 12.728 0 .383 8.367.691 18.59.691h18.588zm52.531 11.51c2.92-7.286 8.683-16.948 17.563-29.507 9.077-12.819 52.807-89.425 52.886-92.59 0-.667-7.578-1.211-16.892-1.211-15.905 0-17.05.22-18.865 3.639-1.026 2-5.012 7.64-8.801 12.535-3.789 4.89-8.999 13.624-11.603 19.406s-12.472 23.459-21.983 39.286c-17.405 28.98-22.851 38.93-27.508 50.068l-2.526 6.062 34.613-.016 3.118-7.676zm66.976-12.12c7.183-10.898 13.971-22.359 15.037-25.473 1.105-3.114 4.618-10.029 7.893-15.365 11.248-18.498 40.414-68.594 40.414-69.47 0-.485-7.854-.88-17.444-.88h-17.484l-6.393 10.834c-3.513 5.96-7.302 13.27-8.367 16.25-1.066 2.975-5.88 11.018-10.696 17.87-13.142 18.778-49.61 81.267-49.61 85.028 0 .56 7.538 1.015 16.774 1.015h16.734zm47.163 17.546c0-4.16 9.827-21.115 16.024-27.655 3.394-3.56 10.38-14.477 15.55-24.26 10.301-19.595 30.074-53.036 39.862-67.52l6.315-9.298h-38.875l-2.526 6.066c-1.382 3.335-6.75 12.614-11.92 20.618-5.13 8.004-19.456 32.387-31.77 54.177-12.314 21.794-23.8 41.99-25.496 44.878l-3.079 5.257h17.958c14.287 0 17.958-.458 17.958-2.261zm62.516-7.846c2.723-5.557 7.696-13.348 11.011-17.31s8.801-12.748 12.195-19.52c3.434-6.772 14.169-25.42 23.956-41.437 9.748-16.016 19.26-32.158 21.154-35.868l3.473-6.752h-34.968l-5.802 7.767c-7.183 9.622-11.05 16.998-11.05 21.032 0 1.693-2.408 6.279-5.368 10.186-7.538 10.009-18.194 27.805-31.85 53.198-6.473 12.006-14.208 25.654-17.168 30.323l-5.407 8.49h34.85zm58.688 3.016c4.657-10.85 17.089-32.19 25.812-44.294 4.341-5.984 14.603-23.25 22.852-38.37 8.21-15.12 17.089-30.587 19.655-34.368l4.697-6.872h-35.52l-9.749 13.344c-5.328 7.337-10.143 15.037-10.656 17.113s-2.644 6.441-4.657 9.705c-2.052 3.26-10.853 18.664-19.536 34.23s-19.734 34.332-24.509 41.701c-4.815 7.369-8.722 13.738-8.722 14.15 0 .414 8.406.753 18.668.753h18.628zm59.635-1.05c1.855-4.48 7.499-14.484 12.511-22.236 16.774-25.875 57.306-96.316 57.306-99.552 0-.584-7.657-1.066-17.01-1.066-14.761 0-17.168.38-18.076 2.83-.592 1.555-2.881 5.743-5.091 9.298-33.43 53.371-66.542 111.7-66.542 117.2 0 1.042 6.314 1.67 16.774 1.67h16.774zm56.083 4.93c.553-1.769 5.407-9.927 10.814-18.128 5.368-8.205 15.945-26.159 23.522-39.905 7.538-13.742 19.891-35.102 27.469-47.467 7.538-12.365 13.498-22.725 13.182-23.029-1.302-1.239-36.981 1.318-36.981 2.652 0 .802-4.302 7.862-9.59 15.696-5.25 7.835-10.617 16.722-11.88 19.75-1.303 3.027-12.235 22.377-24.312 42.998-12.077 20.622-23.483 40.454-25.338 44.07l-3.355 6.575h17.72c16.26 0 17.8-.265 18.748-3.213zm57.425 1.191c.04-4.598 8.17-18.984 15.155-26.873 4.144-4.645 10.064-13.525 13.182-19.738 7.617-15.096 31.653-56.07 41.44-70.567 4.302-6.405 7.854-12.049 7.854-12.53 0-.486-8.564-.877-19.023-.873l-18.984.012-5.525 10.096c-3.04 5.553-8.92 16.647-13.064 24.65-4.145 8.005-10.577 19.072-14.287 24.585-3.71 5.517-14.682 24.256-24.391 41.646l-17.602 31.613h17.602c13.024 0 17.642-.53 17.642-2.02zm61.174-6.117c2.052-4.476 7.42-13.024 11.959-19.003 4.5-5.976 12.748-18.502 18.313-27.844 11.327-19.114 42.782-75.552 42.782-76.811 0-.45-7.617-.817-16.931-.817h-16.931l-6.315 8.49c-7.183 9.598-11.564 17.692-11.564 21.252 0 1.326-3.907 8.095-8.643 15.041s-13.222 21-18.826 31.226c-5.604 10.23-15.155 27.15-21.154 37.6l-10.972 19.003h34.534zm-1078.8-64.821c10.688-19.224 22.386-39.601 26.001-45.281l6.571-10.33-15.692-.473c-8.627-.26-17.23-.087-19.118.383-3.354.837-5.805 5.056-15.81 27.213-4.026 8.928-4.212 10.589-4.212 37.928 0 16.438.6 27.935 1.417 27.051.778-.845 10.16-17.267 20.843-36.491m1341.9 942.98c-1.144-1.816 14.327-30.496 41.44-76.965 10.419-17.902 20.799-36.168 23.049-40.592 2.25-4.425 10.419-18.526 18.155-31.333 7.736-12.811 17.287-29.841 21.194-37.845l7.183-14.556-.513 20.215-.513 20.215-8.999 18.6c-9.67 19.916-23.6 43.758-39.15 66.91-5.29 7.893-13.893 23.392-19.103 34.443-11.288 23.905-17.405 32.88-25.417 37.277-7.222 3.943-16.024 5.782-17.326 3.63zm65.476-15.712c4.578-8.671 16.458-29.813 26.404-46.978l18.115-31.21.474 11.588c.355 8.379-.514 15.005-3.118 23.933-11.366 38.717-25.851 58.435-43.02 58.435h-7.143zm-112.84-299.19c.75-19.97 2.29-23.85 20.128-50.85 9.551-14.436 18.352-31.423 18.352-35.39 0-.903 3.552-6.886 7.854-13.3 15.984-23.671 52.294-85.106 81.894-138.6 10.143-18.328 28.14-46.898 29.482-46.898.474 0 .553 8.185.158 18.194-.553 13.328-1.54 19.706-3.67 23.854-7.42 14.224-33.43 57.772-45.94 76.819-7.578 11.564-17.722 29.028-22.497 38.812-7.814 15.889-33.468 61.012-48.308 84.906-3.039 4.894-9.195 16.174-13.735 25.07-11.88 23.337-19.063 34.77-21.904 34.77-2.13 0-2.407-2.53-1.815-17.385z" clip-rule="nonzero" color="#000" style="font-feature-settings:normal;font-variant-alternates:normal;font-variant-caps:normal;font-variant-east-asian:normal;font-variant-ligatures:normal;font-variant-numeric:normal;font-variant-position:normal;font-variation-settings:normal;inline-size:0;isolation:auto;mix-blend-mode:normal;shape-margin:0;shape-padding:0;text-decoration-color:#000;text-decoration-line:none;text-decoration-style:solid;text-indent:0;text-orientation:mixed;text-transform:none;white-space:normal"/><path fill-rule="nonzero" d="M-67.015 2232.4q-2.2 0-2.8-2l-15.4-55.2q-.4-.8-1-.8h-6.8q-1 0-1 1v54.6q0 1-.8 1.8-.6.6-1.6.6h-23.4q-1 0-1.8-.6-.6-.8-.6-1.8v-135.2q0-1 .6-1.6.8-.8 1.8-.8h40.4q11 0 19.6 5.4 8.6 5.2 13.2 14.8 4.8 9.6 4.8 22 0 11.8-4.6 20.8-4.4 9-12.4 14a1.3 1.3 0 0 0-.6.6q-.2.2 0 .6l18.4 59 .2.8q0 2-2.2 2zm-26-115.8q-1 0-1 1v34.2q0 1 1 1h9q6.2 0 10-4.8 4-5 4-13.2 0-8.4-4-13.2-3.8-5-10-5zm137.941 70.8q0 1-.8 1.8-.6.6-1.6.6h-44q-1 0-1 1v7.4q0 5 2.6 8.4 2.8 3.2 7 3.2 3.8 0 6.2-2.4 2.4-2.6 3.2-6.4.6-2 2.6-2l23 1.2a1.9 1.9 0 0 1 1.6.8q.8.6.6 1.8-1.4 15.4-10.8 23.4-9.2 7.8-26.4 7.8-17.8 0-27.8-8.8-10-9-10-24.8v-38.8q0-15.2 10-24.4 10.2-9.2 27.8-9.2t27.6 9.2q10.2 9.2 10.2 24.4zm-37.8-35.2q-4.2 0-7 3.2-2.6 3.2-2.6 8.2v7.8q0 1 1 1h17.2q1 0 1-1v-7.8q0-5-2.8-8.2-2.6-3.2-6.8-3.2m52.309 80.2q-1 0-1.8-.6-.6-.8-.6-1.8v-135.2q0-1 .6-1.6.8-.8 1.8-.8h23.4a1.9 1.9 0 0 1 1.6.8q.8.6.8 1.6V2230q0 1-.8 1.8-.6.6-1.6.6zm114.395-45q0 1-.8 1.8-.6.6-1.6.6h-44q-1 0-1 1v7.4q0 5 2.6 8.4 2.8 3.2 7 3.2 3.8 0 6.2-2.4 2.4-2.6 3.2-6.4.6-2 2.6-2l23 1.2a1.9 1.9 0 0 1 1.6.8q.8.6.6 1.8-1.4 15.4-10.8 23.4-9.2 7.8-26.4 7.8-17.8 0-27.8-8.8-10-9-10-24.8v-38.8q0-15.2 10-24.4 10.2-9.2 27.8-9.2c17.6 0 20.933 3.067 27.6 9.2q10.2 9.2 10.2 24.4zm-37.8-35.2q-4.2 0-7 3.2-2.6 3.2-2.6 8.2v7.8q0 1 1 1h17.2q1 0 1-1v-7.8q0-5-2.8-8.2-2.6-3.2-6.8-3.2m86.95-24.2q17 0 27.6 9.2c10.6 9.2 10.6 14.2 10.6 24.2v68.6q0 1-.8 1.8-.6.6-1.6.6h-23.4q-1 0-1.8-.6-.6-.8-.6-1.8v-4.4q0-.6-.4-.8c-.4-.2-.533 0-.8.4q-6.6 8.4-20.4 8.8-11.6 0-20.2-6.4-8.4-6.4-8.4-24.4 0-18.6 10.2-25.6 10.4-7 29.8-7h9.2q1 0 1-1v-5q0-5.4-3-8.8-2.8-3.6-7.2-3.6-3.4 0-5.8 2.2-2.2 2-2.8 5.8-.2 2.4-2.6 2.4l-24-.2q-2.4 0-2.4-2.4 1-14.6 11.4-23.2 10.4-8.8 26.4-8.8m-2 84.2q4.6 0 8.2-3 3.8-3.2 3.8-8.4v-9.4q0-1-1-1h-8.2q-5.4 0-8.8 3.2-3.2 3-3.2 8.4 0 5 2.4 7.6 2.6 2.6 6.8 2.6m99.87-83.8q5.4 0 8.4 2 1.6 1 1.2 3l-3.8 23.4q-.2 2.2-2.8 1.6-2.2-.8-5.4-.8-3 0-5.2.8-4.6.8-7.4 5.6-2.8 4.6-2.8 10.8v55q0 1-.8 1.8-.6.6-1.6.6h-23.4q-1 0-1.8-.6-.6-.8-.6-1.8V2132q0-1 .6-1.6.8-.8 1.8-.8h23.4a1.9 1.9 0 0 1 1.6.8q.8.6.8 1.6v7.8q0 .8.2 1 .4 0 .8-.6 5.4-11.8 16.8-11.8m66.64-.4q13.6 0 20.4 9c6.8 9 6.8 14.4 6.8 25.2v67.8q0 1-.8 1.8-.6.6-1.6.6h-23.4q-1 0-1.8-.6-.6-.8-.6-1.8v-65.6q0-5.8-2.4-9-2.2-3.2-6.6-3.2-4.6 0-7.2 3.4-2.4 3.2-2.4 9.2v65.2q0 1-.8 1.8-.6.6-1.6.6h-23.4q-1 0-1.8-.6-.6-.8-.6-1.8v-98q0-1 .6-1.6.8-.8 1.8-.8h23.4a1.9 1.9 0 0 1 1.6.8q.8.6.8 1.6v3.8q0 .6.4.6.6 0 1.4-.8 6.4-7.6 17.8-7.6m120.5 106q-18 0-29-10.6-10.8-10.8-10.8-28.8v-64.8q0-17.8 10.8-28.4 11-10.6 29-10.6 18.2 0 29 10.6 11 10.6 11 28.4v2.2q0 1-.8 1.8-.6.6-1.6.6l-23.4 1q-2.4 0-2.4-2.2v-5.2q0-5.8-3.2-9.4c-3.2-3.6-5-3.6-8.6-3.6q-5.2 0-8.4 3.6c-3.2 3.6-3.2 5.533-3.2 9.4v69q0 5.8 3.2 9.4 3.2 3.4 8.4 3.4 5.4 0 8.6-3.4 3.2-3.6 3.2-9.4v-5.4q0-1 .6-1.6.8-.8 1.8-.8l23.4 1a1.9 1.9 0 0 1 1.6.8q.8.6.8 1.6v2q0 18-11 28.8-11 10.6-29 10.6m91.17 0q-11.6 0-20.4-4.6c-8.8-4.6-10.4-7.333-13.6-12.8q-4.8-8.4-4.8-19.2v-5.8q0-1 .6-1.6.8-.8 1.8-.8h23a1.9 1.9 0 0 1 1.6.8q.8.6.8 1.6v4.4q0 6.2 3.2 10c3.2 3.8 4.8 3.8 8 3.8s5.867-1.2 8-3.6 3.2-5.533 3.2-9.4q0-6-4-10.2-4-4.4-15.6-12.8-10-7.2-16.2-12.8c-6.2-5.6-7.667-8.333-10.6-13.8s-4.4-11.8-4.4-19q0-17 10.6-27.2c10.6-10.2 16.4-10.2 28-10.2q17.6 0 28.2 10.6 10.8 10.6 10.8 27.8v4.8q0 1-.8 1.8-.6.6-1.6.6h-23q-1 0-1.8-.6-.6-.8-.6-1.8v-5.4q0-6.2-3.2-9.8-3-3.8-8-3.8-4.8 0-7.8 3.6-3 3.4-3 9.6 0 6 3.8 10.6c3.8 4.6 7.533 7.333 15 12.8q12.4 9.2 18.6 15 6.4 5.6 9.8 12.6 3.6 6.8 3.6 16.4 0 17.6-10.8 28c-10.8 10.4-16.667 10.4-28.4 10.4m88.67 0q-11.6 0-20.4-4.6c-8.8-4.6-10.4-7.333-13.6-12.8q-4.8-8.4-4.8-19.2v-5.8q0-1 .6-1.6.8-.8 1.8-.8h23a1.9 1.9 0 0 1 1.6.8q.8.6.8 1.6v4.4q0 6.2 3.2 10c3.2 3.8 4.8 3.8 8 3.8s5.867-1.2 8-3.6 3.2-5.533 3.2-9.4q0-6-4-10.2-4-4.4-15.6-12.8-10-7.2-16.2-12.8c-6.2-5.6-7.667-8.333-10.6-13.8s-4.4-11.8-4.4-19q0-17 10.6-27.2c10.6-10.2 16.4-10.2 28-10.2q17.6 0 28.2 10.6 10.8 10.6 10.8 27.8v4.8q0 1-.8 1.8-.6.6-1.6.6h-23q-1 0-1.8-.6-.6-.8-.6-1.8v-5.4q0-6.2-3.2-9.8-3-3.8-8-3.8-4.8 0-7.8 3.6-3 3.4-3 9.6 0 6 3.8 10.6c3.8 4.6 7.533 7.333 15 12.8q12.4 9.2 18.6 15 6.4 5.6 9.8 12.6 3.6 6.8 3.6 16.4 0 17.6-10.8 28c-10.8 10.4-16.667 10.4-28.4 10.4m92.91-1.6q-1 0-1.8-.6-.6-.8-.6-1.8v-135.2q0-1 .6-1.6.8-.8 1.8-.8h23.4a1.9 1.9 0 0 1 1.6.8q.8.6.8 1.6V2230q0 1-.8 1.8-.6.6-1.6.6zm77.4-104.4q17 0 27.6 9.2c10.6 9.2 10.6 14.2 10.6 24.2v68.6q0 1-.8 1.8-.6.6-1.6.6h-23.4q-1 0-1.8-.6-.6-.8-.6-1.8v-4.4q0-.6-.4-.8c-.4-.2-.533 0-.8.4q-6.6 8.4-20.4 8.8-11.6 0-20.2-6.4-8.4-6.4-8.4-24.4 0-18.6 10.2-25.6 10.4-7 29.8-7h9.2q1 0 1-1v-5q0-5.4-3-8.8-2.8-3.6-7.2-3.6-3.4 0-5.8 2.2-2.2 2-2.8 5.8-.2 2.4-2.6 2.4l-24-.2q-2.4 0-2.4-2.4 1-14.6 11.4-23.2 10.4-8.8 26.4-8.8m-2 84.2q4.6 0 8.2-3 3.8-3.2 3.8-8.4v-9.4q0-1-1-1h-8.2q-5.4 0-8.8 3.2-3.2 3-3.2 8.4 0 5 2.4 7.6 2.6 2.6 6.8 2.6m51.64 60q-.4 0-.8-.8-.4-.6-.4-1.6v-18.4q0-2.4 1.8-2.4 10.4-.2 14.8-3.4 4.4-3 5-12.6l-.2-1.2-25.2-99.8v-.8q0-1.8 2.2-1.8h25.2q2.4 0 2.6 2.2l9.2 59.4q.2.8.6.8c.4 0 .467-.267.6-.8l8.8-59.4q.2-2.2 2.6-2.2l25.2.4q2.8 0 2.2 2.6l-26.4 103.8q-4 14.6-8.6 21.8-4.4 7.4-13.2 10.8-8.6 3.4-25 3.4zm118.02-38.2q-17.8 0-28-9-10-9-10-24.6v-38.8q0-15.2 10.2-24.4t27.8-9.2q17.8 0 28 9.2c10.2 9.2 10.2 14.267 10.2 24.4v38.8q0 15.6-10.2 24.6-10 9-28 9m0-24.4q4.4 0 7.2-3.2c2.8-3.2 2.8-4.867 2.8-8.2v-34.6q0-5-2.8-8.2c-2.8-3.2-4.267-3.2-7.2-3.2s-5.333 1.067-7.2 3.2q-2.6 3.2-2.6 8.2v34.6q0 5 2.6 8.2 2.8 3.2 7.2 3.2m97.7-77.6q0-1 .6-1.6.8-.8 1.8-.8h23.4a1.9 1.9 0 0 1 1.6.8q.8.6.8 1.6v98q0 1-.8 1.8-.6.6-1.6.6h-23.4q-1 0-1.8-.6-.6-.8-.6-1.8v-3.4q0-.6-.4-.8c-.4-.2-.533 0-.8.4q-3 4.2-7.6 6-4.4 1.6-10.4 1.6-12 0-19.8-7.2-7.8-7.4-7.8-22.6v-72q0-1 .6-1.6.8-.8 1.8-.8h23.4a1.9 1.9 0 0 1 1.6.8q.8.6.8 1.6v65.8q0 5.8 2.2 9 2.4 3 6.8 3c4.4 0 5.267-1.133 7-3.4s2.6-5.333 2.6-9.2zm90.2 15q0 1-.8 1.8-.6.6-1.6.6h-11.2q-1 0-1 1v47.6q0 5.8 2.2 8c2.2 2.2 3.667 2.133 6.6 2h1.4a1.9 1.9 0 0 1 1.6.8q.8.6.8 1.6v19.6q0 1-.8 1.8-.6.6-1.6.6h-8q-14.6 0-22-4.8-7.4-5-7.4-18.8v-58.4q0-1-1-1h-6.6q-1 0-1.8-.6-.6-.8-.6-1.8v-15q0-1 .6-1.6.8-.8 1.8-.8h6.6q1 0 1-1v-22.2q0-1 .6-1.6.8-.8 1.8-.8h22.4a1.9 1.9 0 0 1 1.6.8q.8.6.8 1.6v22.2q0 1 1 1h11.2a1.9 1.9 0 0 1 1.6.8q.8.6.8 1.6zM183.28 2328q13.6 0 20.6 8.8 7.2 8.6 7.2 24.8v38.8q0 15.8-7 24.8-7 8.8-20.8 8.8-11.2 0-18-7.6-.4-.4-.8-.2-.4 0-.4.6v3.2q0 1-.8 1.8-.6.6-1.6.6h-23.4q-1 0-1.8-.6-.6-.8-.6-1.8v-135.2q0-1 .6-1.6.8-.8 1.8-.8h23.4a1.9 1.9 0 0 1 1.6.8q.8.6.8 1.6v40.6q0 .4.4.4.8 0 1.6-1 6.8-6.8 17.2-6.8m-.4 35.6q0-5-2.6-8.2c-2.6-3.2-4-3.2-6.8-3.2q-3.6 0-6.2 2.4c-2.6 2.4-2.8 3.733-3.2 6.4v40q.6 4 3.2 6.4c2.6 2.4 3.8 2.4 6.2 2.4q4.2 0 6.8-3.2c2.6-3.2 2.6-4.867 2.6-8.2zm40.6 108.6q-.4 0-.8-.8-.4-.6-.4-1.6v-18.4q0-2.4 1.8-2.4 10.4-.2 14.8-3.4 4.4-3 5-12.6l-.2-1.2-25.2-99.8v-.8q0-1.8 2.2-1.8h25.2q2.4 0 2.6 2.2l9.2 59.4q.2.8.6.8c.4 0 .467-.267.6-.8l8.8-59.4q.2-2.2 2.6-2.2l25.2.4q2.8 0 2.2 2.6l-26.4 103.8q-4 14.6-8.6 21.8-4.4 7.4-13.2 10.8-8.6 3.4-25 3.4zm198.81-84.8q0 1-.8 1.8-.6.6-1.6.6h-44q-1 0-1 1v7.4q0 5 2.6 8.4 2.8 3.2 7 3.2 3.8 0 6.2-2.4 2.4-2.6 3.2-6.4.6-2 2.6-2l23 1.2a1.9 1.9 0 0 1 1.6.8q.8.6.6 1.8-1.4 15.4-10.8 23.4-9.2 7.8-26.4 7.8-17.8 0-27.8-8.8-10-9-10-24.8v-38.8q0-15.2 10-24.4 10.2-9.2 27.8-9.2c17.6 0 20.933 3.067 27.6 9.2q10.2 9.2 10.2 24.4zm-37.8-35.2q-4.2 0-7 3.2-2.6 3.2-2.6 8.2v7.8q0 1 1 1h17.2q1 0 1-1v-7.8q0-5-2.8-8.2-2.6-3.2-6.8-3.2m48.31 80.2q-1.4 0-2-.6-.4-.8.2-2.2l22.8-48q.2-.6 0-1.2l-22.8-48q-.4-.8-.4-1.2 0-1.6 2.2-1.6h25.6q2 0 2.8 1.8l9.8 22.6q.6 1.2 1.2 0l9.8-22.6q.8-1.8 2.8-1.8h25.4q1.4 0 1.8.8.6.6 0 2l-22.8 48q-.2.6 0 1.2l22.8 48q.4.8.4 1.2 0 1.6-2.2 1.6h-25.4q-2.2 0-2.8-1.8l-9.8-23.4q-.6-1.6-1.2 0l-9.8 23.4q-.6 1.8-2.8 1.8zM560.29 2328q17 0 27.6 9.2c10.6 9.2 10.6 14.2 10.6 24.2v68.6q0 1-.8 1.8-.6.6-1.6.6h-23.4q-1 0-1.8-.6-.6-.8-.6-1.8v-4.4q0-.6-.4-.8c-.4-.2-.533 0-.8.4q-6.6 8.4-20.4 8.8-11.6 0-20.2-6.4-8.4-6.4-8.4-24.4 0-18.6 10.2-25.6 10.4-7 29.8-7h9.2q1 0 1-1v-5q0-5.4-3-8.8-2.8-3.6-7.2-3.6-3.4 0-5.8 2.2-2.2 2-2.8 5.8-.2 2.4-2.6 2.4l-24-.2q-2.4 0-2.4-2.4 1-14.6 11.4-23.2 10.4-8.8 26.4-8.8m-2 84.2q4.6 0 8.2-3 3.8-3.2 3.8-8.4v-9.4q0-1-1-1h-8.2q-5.4 0-8.8 3.2-3.2 3-3.2 8.4 0 5 2.4 7.6 2.6 2.6 6.8 2.6m147.27-84.2q13.6 0 20.4 9.2c6.8 9.2 6.8 14.733 6.8 25.8v67q0 1-.8 1.8-.6.6-1.6.6h-23.4q-1 0-1.8-.6-.6-.8-.6-1.8v-65.2q0-6-2.4-9.2-2.4-3.4-6.4-3.4-4.4 0-7 3.4-2.4 3.2-2.4 9.2v65.2q0 1-.8 1.8-.6.6-1.6.6h-23.2q-1 0-1.8-.6-.6-.8-.6-1.8v-65.2q0-6-2.4-9.2-2.4-3.4-6.4-3.4-4.4 0-7 3.4-2.4 3.2-2.4 9.2v65.2q0 1-.8 1.8-.6.6-1.6.6h-23.4q-1 0-1.8-.6-.6-.8-.6-1.8v-98q0-1 .6-1.6.8-.8 1.8-.8h23.4a1.9 1.9 0 0 1 1.6.8q.8.6.8 1.6v2.6q0 .6.4.8c.4.2.533.067.8-.2q4-4 8.8-5.6c4.8-1.6 6.267-1.6 9.2-1.6q15.6 0 22.4 12.4l.4.2q.6 0 1.4-1.2 4.2-6.4 10-8.8 6-2.6 12-2.6m89.75 0q13.8 0 20.8 9 7.2 8.8 7.2 24.4v39q0 16.2-7.2 25-7.2 8.6-20.8 8.6-4.4 0-9.2-1.6-4.8-1.8-8.8-6.2-.4-.6-.8-.4c-.4.2-.4.4-.4.8v40.6a1.9 1.9 0 0 1-.8 1.6 1.9 1.9 0 0 1-1.6.8h-23.4q-1 0-1.8-.8-.6-.6-.6-1.6V2332q0-1 .6-1.6.8-.8 1.8-.8h23.4a1.9 1.9 0 0 1 1.6.8q.8.6.8 1.6v3.2q0 .4.4.4.8 0 1.6-1 6.8-6.6 17.2-6.6m-.2 35.6q0-5.2-2.6-8.4c-2.6-3.2-4.067-3.2-7-3.2q-4.2 0-6.8 3.2c-2.6 3.2-2.6 4.933-2.6 8.4v34.6q0 5.2 2.6 8.4c2.6 3.2 4 3.2 6.8 3.2q4.4 0 7-3.2c2.6-3.2 2.6-4.933 2.6-8.4zm43.26 68.8q-1 0-1.8-.6-.6-.8-.6-1.8v-135.2q0-1 .6-1.6.8-.8 1.8-.8h23.4a1.9 1.9 0 0 1 1.6.8q.8.6.8 1.6V2430q0 1-.8 1.8-.6.6-1.6.6zm114.39-45q0 1-.8 1.8-.6.6-1.6.6h-44q-1 0-1 1v7.4q0 5 2.6 8.4 2.8 3.2 7 3.2 3.8 0 6.2-2.4 2.4-2.6 3.2-6.4.6-2 2.6-2l23 1.2a1.9 1.9 0 0 1 1.6.8q.8.6.6 1.8-1.4 15.4-10.8 23.4-9.2 7.8-26.4 7.8-17.8 0-27.8-8.8-10-9-10-24.8v-38.8q0-15.2 10-24.4 10.2-9.2 27.8-9.2c17.6 0 20.933 3.067 27.6 9.2q10.2 9.2 10.2 24.4zm-37.8-35.2q-4.2 0-7 3.2-2.6 3.2-2.6 8.2v7.8q0 1 1 1h17.2q1 0 1-1v-7.8q0-5-2.8-8.2-2.6-3.2-6.8-3.2" clip-rule="nonzero" color="#000" style="font-feature-settings:normal;font-variant-alternates:normal;font-variant-caps:normal;font-variant-east-asian:normal;font-variant-ligatures:normal;font-variant-numeric:normal;font-variant-position:normal;font-variation-settings:normal;inline-size:0;isolation:auto;mix-blend-mode:normal;shape-margin:0;shape-padding:0;text-decoration-color:#000;text-decoration-line:none;text-decoration-style:solid;text-indent:0;text-orientation:mixed;text-transform:none;white-space:normal" transform="translate(726.02 -254.16)scale(.94721)"/><path d="M868.586 183.93h18.553v28.629h11.644v7.198h-32.69v-7.198h11.675v-21.43h-9.18zm9.18-17.433h9.373v10.94h-9.373zm57.41 29.994v23.255h-9.307v-21.815q0-3.902-1.121-5.566-1.087-1.694-3.582-1.694-2.527 0-3.999 2.27-1.44 2.271-1.44 6.302v20.503h-9.307v-35.825h9.308v5.374q.992-2.975 3.391-4.607t5.79-1.63q5.086 0 7.676 3.388 2.591 3.36 2.591 10.045m17.53 8.32v-27.637h-9.5v-7.197h18.872v34.835q0 4.222 1.313 5.98t4.446 1.759h7.484v7.198h-10.109q-6.684 0-9.595-3.455t-2.911-11.482zm34.104-20.88h18.552v28.628h11.644v7.198h-32.69v-7.198h11.675v-21.43h-9.18zm9.18-17.434h9.372v10.94h-9.372zm57.41 29.994v23.255h-9.308v-21.815q0-3.902-1.121-5.566-1.087-1.694-3.581-1.694-2.528 0-3.999 2.27-1.44 2.271-1.44 6.302v20.503h-9.307v-35.825h9.307v5.374q.993-2.975 3.392-4.607t5.789-1.63q5.086 0 7.676 3.388 2.592 3.36 2.592 10.045m40.397 21.505q-3.263 1.344-6.653 2.015t-7.166.672q-8.987 0-13.753-4.798-4.734-4.83-4.734-13.882 0-8.765 4.573-13.85 4.575-5.087 12.476-5.087 7.965 0 12.347 4.734 4.413 4.701 4.413 13.275v3.805h-24.278q.032 4.224 2.496 6.303t7.357 2.079q3.23 0 6.365-.928 3.134-.927 6.557-2.942zm-7.933-20.152q-.064-3.71-1.919-5.597-1.824-1.919-5.406-1.919-3.23 0-5.15 1.982-1.918 1.952-2.271 5.568zm15.36-1.25h33.905v8.604h-33.905zm67.839-11.543v8.19q-2.592-1.664-5.406-2.496-2.784-.864-5.598-.864-3.134 0-4.734.927-1.6.896-1.6 2.688 0 2.558 6.846 4.159l.352.095 2.687.64q5.117 1.215 7.484 3.934 2.4 2.688 2.4 7.293 0 5.534-3.647 8.316-3.614 2.752-10.907 2.752-3.231 0-6.621-.577-3.392-.544-6.877-1.662v-8.19q3.102 1.76 6.3 2.689 3.232.926 6.238.926 3.295 0 4.99-.96t1.695-2.782q0-1.791-1.216-2.752-1.183-.959-5.693-2.046l-2.591-.575q-5.374-1.217-7.836-3.807t-2.463-6.942q0-5.181 3.742-8.06t10.523-2.88q3.04 0 6.046.513 3.038.48 5.886 1.471m14.816-1.12h18.552v28.628h11.644v7.198h-32.69v-7.198h11.675v-21.43h-9.18zm9.18-17.434h9.372v10.94h-9.372zm29.038 17.433h28.629v7.325l-18.84 21.496h18.84v7.004h-29.395v-7.325l18.872-21.494h-18.104zm68.794 34.066q-3.262 1.344-6.652 2.015t-7.166.672q-8.988 0-13.754-4.798-4.734-4.83-4.734-13.882 0-8.765 4.573-13.85 4.575-5.087 12.476-5.087 7.965 0 12.348 4.734 4.413 4.701 4.413 13.275v3.805h-24.278q.032 4.224 2.495 6.303t7.358 2.079q3.229 0 6.364-.928t6.557-2.942zm-7.933-20.152q-.063-3.71-1.918-5.597-1.823-1.919-5.407-1.919-3.23 0-5.15 1.982-1.918 1.952-2.27 5.568z"/><path fill="#050505" fill-rule="nonzero" d="M-194.62-28.304q0-.41.41-.41h3.118q.41 0 .41.41V-.41q0 .41-.41.41h-3.118q-.41 0-.41-.41v-12.101q0-.164-.164-.164h-6.194q-.165 0-.164.164V-.41q0 .41-.41.41h-3.118q-.41 0-.41-.41v-27.894q0-.41.41-.41h3.118q.41 0 .41.41v12.06q0 .165.164.164h6.194q.165 0 .164-.164zm22.01 19.074q0 .41-.41.41h-9.27q-.165 0-.165.165v2.215q0 1.476.82 2.42.822.944 2.134.944 1.148 0 1.928-.698c.78-.698.847-1.066.984-1.805q.123-.328.451-.328l3.036.164q.204 0 .287.123.124.123.082.287-.287 2.667-2.051 4.184-1.723 1.477-4.717 1.477-3.159 0-5.046-1.764-1.846-1.764-1.846-4.717v-8.532q0-2.912 1.846-4.718 1.887-1.804 5.046-1.804 3.199 0 5.045 1.804c1.846 1.804 1.846 2.776 1.846 4.718zm-6.891-8.573q-1.313 0-2.133.944c-.82.944-.82 1.435-.82 2.42v2.174q0 .165.163.164h5.62q.164 0 .164-.164v-2.174q0-1.477-.82-2.42c-.82-.943-1.272-.944-2.174-.944m9.821 25.966q-.083 0-.164-.123a.5.5 0 0 1-.082-.287v-2.42q0-.41.41-.41 1.313-.042 2.051-.41.78-.37 1.23-1.395.493-1.026.821-2.995l-.04-.205-5.251-20.346-.041-.123q0-.328.41-.328h3.363q.41 0 .452.369l2.994 14.808q.041.123.082.123c.041 0 .055-.041.082-.123l2.953-14.808q.083-.37.452-.37l3.404.042q.206 0 .287.123.123.123.041.328l-5.62 21.823q-.778 2.83-1.558 4.184-.78 1.395-2.174 1.969-1.355.574-3.897.574zm25.31-36.467q0-.41.41-.41h3.118q.41 0 .41.41V-.41q0 .41-.41.41h-3.118q-.41 0-.41-.41v-.656q0-.083-.082-.123-.04-.042-.123.04-.78.74-1.764 1.108c-.984.368-1.313.37-1.969.37q-2.707 0-4.307-1.765-1.56-1.804-1.559-4.717v-8.532q0-3.036 1.559-4.758 1.6-1.764 4.307-1.764.984 0 1.969.369c.985.369 1.244.615 1.764 1.107q.083.083.123.041.082-.04.082-.123zm-2.912 25.227q1.148 0 1.928-.738.82-.78.984-2.01v-9.23q-.165-1.23-.985-1.969-.78-.78-1.927-.78-1.313 0-2.174.944-.82.944-.82 2.42v8q0 1.476.82 2.42.86.943 2.174.943M-129.53.328q-3.2 0-5.086-1.764-1.846-1.805-1.846-4.758v-8.491q0-2.913 1.886-4.717c1.886-1.804 2.94-1.805 5.046-1.805q3.2 0 5.087 1.805c1.886 1.805 1.886 2.775 1.886 4.717v8.491q0 2.954-1.887 4.758Q-126.33.328-129.53.328m0-3.446q1.313 0 2.174-.902.861-.944.862-2.461v-7.958q0-1.477-.862-2.42c-.862-.943-1.299-.944-2.174-.944s-1.6.315-2.174.944q-.82.943-.82 2.42v7.958q0 1.518.82 2.461.861.902 2.174.902m19.14-18.048q2.585 0 3.938 1.764 1.395 1.724 1.395 4.922V-.41q0 .41-.41.41h-3.118q-.41 0-.41-.41v-13.742q0-1.722-.739-2.666c-.739-.944-1.176-.943-2.05-.943q-1.354 0-2.134.943-.738.903-.82 2.584 0 .246-.041.246V-.41q0 .41-.41.41h-3.118q-.41 0-.41-.41v-20.059q0-.41.41-.41h3.118q.41 0 .41.41v1.108q0 .082.082.123.083 0 .164-.123 1.477-1.805 4.143-1.805m25.677-7.589q3.158 0 5.087 2.297 1.969 2.256 1.969 5.948 0 3.61-1.887 5.825c-1.887 2.215-2.913 2.215-4.964 2.215h-3.856q-.165 0-.164.164V-.41q0 .41-.41.41h-3.117q-.41 0-.41-.41v-27.935q0-.41.41-.41zm-.615 13.126q1.68 0 2.707-1.272 1.026-1.312 1.026-3.527 0-2.256-1.026-3.569-1.026-1.354-2.707-1.354h-3.036q-.165 0-.164.164v9.394q0 .165.164.164zm13.174-8.532q-1.149 0-1.887-.738c-.738-.738-.738-1.122-.738-1.887s.246-1.395.738-1.887 1.121-.739 1.887-.739q1.19 0 1.887.739.738.698.738 1.887 0 1.147-.738 1.887c-.738.74-1.121.738-1.887.738M-73.672 0q-.41 0-.41-.41v-20.06q0-.41.41-.41h3.118q.41 0 .41.41V-.41q0 .41-.41.41zm14.599.328q-3.158 0-5.045-1.764-1.846-1.764-1.846-4.758v-8.491q0-2.913 1.846-4.717 1.886-1.806 5.045-1.805 2.093 0 3.65.82 1.6.78 2.421 2.174.861 1.354.861 3.077v.533q0 .41-.41.41l-3.117.123q-.41 0-.41-.41v-.41q0-1.19-.862-2.051c-.862-.861-1.285-.862-2.133-.862q-1.312 0-2.133.944c-.82.944-.82 1.436-.82 2.42v7.999q0 1.476.82 2.42t2.133.944q1.272 0 2.133-.862t.862-2.05V-6.4q0-.41.41-.41l3.117.04q.41 0 .41.411v.615q0 2.666-1.886 4.39-1.887 1.68-5.046 1.681M-48.28 0q-.41 0-.41-.41v-27.894q0-.41.41-.41h3.118q.41 0 .41.41v15.547q0 .123.082.164.081.04.123-.082l5.291-7.958a.62.62 0 0 1 .493-.246h3.2q.245 0 .327.164.082.123-.04.328l-4.226 6.235q-.123.123-.04.246L-34.62-.45l.04.164q0 .288-.368.287h-3.241q-.369 0-.492-.328l-3.282-10.296q-.041-.247-.246-.04l-2.461 3.568a.28.28 0 0 0-.082.205v6.48q0 .41-.41.41zm29.719-9.23q0 .41-.41.41h-9.27q-.165 0-.165.165v2.215q0 1.476.82 2.42.822.944 2.134.944 1.148 0 1.928-.698c.78-.698.847-1.066.984-1.805q.123-.328.451-.328l3.036.164q.204 0 .287.123.123.123.082.287-.288 2.667-2.051 4.184Q-22.458.328-25.452.328q-3.159 0-5.046-1.764-1.845-1.764-1.846-4.717v-8.532q0-2.912 1.846-4.718 1.887-1.804 5.046-1.804 3.2 0 5.045 1.804c1.845 1.804 1.846 2.776 1.846 4.718zm-6.891-8.573q-1.313 0-2.133.944c-.82.944-.82 1.435-.82 2.42v2.174q0 .165.163.164h5.62q.165 0 .164-.164v-2.174q0-1.477-.82-2.42c-.82-.943-1.272-.944-2.174-.944m18.539-3.281q1.026 0 1.764.451.287.164.205.533l-.615 3.118q-.042.369-.493.246A3.2 3.2 0 0 0-7.2-16.94q-.246 0-.738.082-1.272.123-2.134 1.395-.82 1.271-.82 3.076V-.41q0 .41-.41.41h-3.118q-.41 0-.41-.41v-20.059q0-.41.41-.41h3.118q.41 0 .41.41v2.38q0 .122.041.164.082 0 .123-.124 1.19-3.035 3.815-3.035m6.755-3.077q-1.148 0-1.886-.738-.74-.74-.739-1.887c.001-1.147.246-1.395.739-1.887q.738-.739 1.886-.739 1.19 0 1.887.739.74.698.739 1.887 0 1.147-.739 1.887c-.739.74-1.12.738-1.887.738M-1.675 0q-.41 0-.41-.41v-20.06q0-.41.41-.41h3.117q.41 0 .41.41V-.41q0 .41-.41.41zm16.403-21.166q2.585 0 3.938 1.764 1.395 1.724 1.395 4.922V-.41q0 .41-.41.41h-3.118q-.41 0-.41-.41v-13.742q0-1.722-.739-2.666c-.739-.944-1.176-.943-2.05-.943q-1.354 0-2.134.943-.738.903-.82 2.584 0 .246-.041.246V-.41q0 .41-.41.41H6.81Q6.4 0 6.4-.41v-20.059q0-.41.41-.41h3.12q.41 0 .41.41v1.108q0 .082.082.123.083 0 .164-.123 1.478-1.805 4.143-1.805m18.813.697q0-.41.41-.41h3.118q.41 0 .41.41V-.615q0 4.307-1.97 6.645-1.968 2.38-6.767 2.38l-1.108-.042q-.41-.04-.41-.45V5.291q0-.41.451-.41 3.364.123 4.594-1.354 1.272-1.436 1.272-4.512v-.862q0-.082-.082-.082-.04-.04-.123.041Q31.942 0 29.357 0q-2.706 0-4.183-1.723-1.436-1.763-1.436-4.758v-8.204q0-3.036 1.477-4.758 1.476-1.764 4.143-1.764c2.667 0 3.104.629 3.979 1.887q.082.082.123.04.082-.04.082-.122zM30.63-3.405q1.312 0 2.092-.902.82-.944.82-2.42v-7.712q0-1.478-.82-2.42-.78-.944-2.092-.944c-1.312 0-1.586.314-2.133.943s-.82 1.436-.82 2.42v7.712q0 1.478.82 2.42.82.903 2.133.903M68.862-.492q.082.081.082.246 0 .083-.082.164-.083.082-.246.082h-3.364q-.287 0-.533-.246l-1.395-2.01q-.123-.123-.246 0-1.517 1.353-3.2 2.01-1.64.615-3.61.615-3.363 0-5.332-1.764-1.928-1.805-1.928-5.168 0-2.79 1.272-4.718 1.272-1.968 3.487-3.732.123-.042.04-.205-1.435-2.051-2.132-3.2-.657-1.19-.903-2.01a8.3 8.3 0 0 1-.205-1.928q0-3.036 1.805-4.84 1.805-1.845 4.717-1.846 2.955 0 4.84 1.846c1.886 1.846 1.888 2.857 1.888 4.881q0 2.502-1.313 4.348-1.271 1.805-3.569 3.61-.123.041-.04.205l1.968 2.79 2.38 3.24q.081.165.246 0a8 8 0 0 1 .45-.738 77 77 0 0 0 1.477-2.543.37.37 0 0 1 .247-.206.46.46 0 0 1 .328.041l2.297 1.313q.328.205.164.574a43 43 0 0 1-2.83 4.554.38.38 0 0 0 0 .246zm-11.65-24.981q-1.19 0-1.969.902-.738.862-.738 2.338 0 1.026.369 1.928.37.862 1.682 2.872.123.164.246.04 1.518-1.27 2.297-2.379.78-1.148.78-2.543c0-1.395-.247-1.682-.74-2.256q-.737-.902-1.927-.902m-.533 22.438q2.132 0 4.307-2.092.123-.123.04-.246l-4.88-6.605q-.083-.123-.206 0-1.435 1.272-2.215 2.503a4.76 4.76 0 0 0-.78 2.666q0 1.681.944 2.748.985 1.026 2.79 1.026M92.64 0q-.37 0-.451-.37l-.903-4.716q0-.082-.082-.124-.04-.04-.123-.04h-6.686a.4.4 0 0 0-.164.04q-.04.042-.041.124L83.328-.37q-.04.369-.45.369H79.76a.44.44 0 0 1-.328-.123q-.083-.123-.041-.328l6.112-27.894q.082-.37.45-.37h3.652q.41 0 .45.37L96.21-.451v.082q0 .369-.37.369zm-7.753-8.532q0 .165.123.164h5.456q.123 0 .123-.164l-2.79-14.562q-.04-.082-.081-.082c-.041 0-.055.027-.082.082zm22.293-12.634q2.585 0 3.938 1.764 1.395 1.724 1.395 4.922V-.41q0 .41-.41.41h-3.118q-.41 0-.41-.41v-13.742q0-1.722-.739-2.666c-.739-.944-1.176-.943-2.05-.943q-1.354 0-2.134.943-.738.903-.82 2.584 0 .246-.041.246V-.41q0 .41-.41.41h-3.118q-.41 0-.41-.41v-20.059q0-.41.41-.41h3.118q.41 0 .41.41v1.108q0 .082.082.123.083 0 .164-.123 1.477-1.805 4.143-1.805M126-28.304q0-.41.41-.41h3.118q.41 0 .41.41V-.41q0 .41-.41.41h-3.118Q126 0 126-.41v-.656q0-.083-.082-.123-.04-.042-.123.04-.78.74-1.764 1.108c-.984.368-1.313.37-1.969.37q-2.707 0-4.307-1.765-1.56-1.804-1.559-4.717v-8.532q0-3.036 1.559-4.758 1.6-1.764 4.307-1.764.984 0 1.969.369c.985.369 1.244.615 1.764 1.107q.083.083.123.041.082-.04.082-.123zm-2.912 25.227q1.148 0 1.928-.738.82-.78.984-2.01v-9.23q-.165-1.23-.985-1.969-.78-.78-1.927-.78-1.313 0-2.174.944-.82.944-.82 2.42v8q0 1.476.82 2.42.86.943 2.174.943m10.772 11.24q-.083 0-.164-.123a.5.5 0 0 1-.082-.287v-2.42q0-.41.41-.41 1.313-.042 2.051-.41.78-.37 1.23-1.395.493-1.026.821-2.995l-.04-.205-5.251-20.346-.041-.123q0-.328.41-.328h3.363q.41 0 .452.369l2.994 14.808q.041.123.082.123c.041 0 .055-.041.082-.123l2.953-14.808q.083-.37.452-.37l3.404.042q.206 0 .288.123.122.123.04.328l-5.62 21.823q-.778 2.83-1.558 4.184-.78 1.395-2.174 1.969-1.355.574-3.897.574zm39.78-15.998q0 3.734-2.133 5.784-2.092 2.05-5.538 2.051h-6.85q-.41 0-.41-.41v-27.894q0-.41.41-.41h6.276q3.733 0 5.825 1.969 2.133 1.928 2.133 5.66 0 4.43-3.159 6.112-.205.123-.04.206 1.64.984 2.543 2.748.943 1.764.943 4.184M162.811-25.31q-.165 0-.164.164v8.696q0 .165.164.165h2.625q1.929 0 2.995-1.149 1.065-1.19 1.066-3.282 0-2.174-1.066-3.363-1.067-1.23-2.995-1.23zm2.83 21.864q1.887 0 2.954-1.271 1.107-1.272 1.107-3.61 0-2.38-1.066-3.692-1.067-1.353-2.954-1.354h-2.871q-.165 0-.164.164v9.6q0 .162.164.163zM190.38-9.23q0 .41-.41.41h-9.27q-.165 0-.165.165v2.215q0 1.476.82 2.42.822.944 2.134.944 1.148 0 1.928-.698c.78-.698.847-1.066.984-1.805q.123-.328.451-.328l3.036.164q.204 0 .287.123.124.123.082.287-.287 2.667-2.051 4.184-1.723 1.477-4.717 1.477-3.159 0-5.046-1.764-1.846-1.764-1.846-4.717v-8.532q0-2.912 1.846-4.718 1.887-1.804 5.046-1.804 3.199 0 5.045 1.804c1.846 1.804 1.846 2.776 1.846 4.718zm-6.891-8.573q-1.313 0-2.133.944c-.82.944-.82 1.435-.82 2.42v2.174q0 .165.163.164h5.62q.164 0 .164-.164v-2.174q0-1.477-.82-2.42c-.82-.943-1.272-.944-2.174-.944M194.36 0q-.41 0-.41-.41v-27.894q0-.41.41-.41h3.118q.41 0 .41.41V-.41q0 .41-.41.41zm7.85 0q-.41 0-.41-.41v-27.894q0-.41.41-.41h3.118q.41 0 .41.41V-.41q0 .41-.41.41z" clip-rule="nonzero" color="#000" style="font-feature-settings:normal;font-variant-alternates:normal;font-variant-caps:normal;font-variant-east-asian:normal;font-variant-ligatures:normal;font-variant-numeric:normal;font-variant-position:normal;font-variation-settings:normal;inline-size:0;isolation:auto;mix-blend-mode:normal;shape-margin:0;shape-padding:0;text-decoration-color:#000;text-decoration-line:none;text-decoration-style:solid;text-indent:0;text-orientation:mixed;text-transform:none;white-space:normal" transform="translate(1241.7 3351.8)scale(4.1667)"/><g fill-rule="nonzero" clip-rule="nonzero" color="#000"><path d="M2.834-5.5A8.336 8.336 0 0 0-5.5 2.834v3507.9a8.336 8.336 0 0 0 8.334 8.334h2480.3a8.336 8.336 0 0 0 8.336-8.334V2.834a8.336 8.336 0 0 0-8.336-8.334zm8.336 16.67h2463.7v3491.2H11.17z" style="font-feature-settings:normal;font-variant-alternates:normal;font-variant-caps:normal;font-variant-east-asian:normal;font-variant-ligatures:normal;font-variant-numeric:normal;font-variant-position:normal;font-variation-settings:normal;inline-size:0;isolation:auto;mix-blend-mode:normal;shape-margin:0;shape-padding:0;text-decoration-color:#000;text-decoration-line:none;text-decoration-style:solid;text-indent:0;text-orientation:mixed;text-transform:none;white-space:normal"/><path d="M342.83 196.83v12h500v-12zm979.97 0v12h555v-12z" style="font-feature-settings:normal;font-variant-alternates:normal;font-variant-caps:normal;font-variant-east-asian:normal;font-variant-ligatures:normal;font-variant-numeric:normal;font-variant-position:normal;font-variation-settings:normal;inline-size:0;isolation:auto;mix-blend-mode:normal;shape-margin:0;shape-padding:0;text-decoration-color:#000;text-decoration-line:none;text-decoration-style:solid;text-indent:0;text-orientation:mixed;text-transform:none;white-space:normal"/></g><g fill-rule="nonzero" clip-rule="nonzero" color="#000"><path d="m348.83 182.83-20 20 20 20z" style="font-feature-settings:normal;font-variant-alternates:normal;font-variant-caps:normal;font-variant-east-asian:normal;font-variant-ligatures:normal;font-variant-numeric:normal;font-variant-position:normal;font-variation-settings:normal;inline-size:0;isolation:auto;mix-blend-mode:normal;shape-margin:0;shape-padding:0;text-decoration-color:#000;text-decoration-line:none;text-decoration-style:solid;text-indent:0;text-orientation:mixed;text-transform:none;white-space:normal"/><path d="m348.48 182.48-20.354 20.354 20.354 20.354.854-.354v-40zm-.146 1.56v37.587l-18.793-18.793z" style="font-feature-settings:normal;font-variant-alternates:normal;font-variant-caps:normal;font-variant-east-asian:normal;font-variant-ligatures:normal;font-variant-numeric:normal;font-variant-position:normal;font-variation-settings:normal;inline-size:0;isolation:auto;mix-blend-mode:normal;shape-margin:0;shape-padding:0;text-decoration-color:#000;text-decoration-line:none;text-decoration-style:solid;text-indent:0;text-orientation:mixed;text-transform:none;white-space:normal"/></g><g fill-rule="nonzero" clip-rule="nonzero" color="#000"><path d="m1866.6 222.83 20-20-20-20z" style="font-feature-settings:normal;font-variant-alternates:normal;font-variant-caps:normal;font-variant-east-asian:normal;font-variant-ligatures:normal;font-variant-numeric:normal;font-variant-position:normal;font-variation-settings:normal;inline-size:0;isolation:auto;mix-blend-mode:normal;shape-margin:0;shape-padding:0;text-decoration-color:#000;text-decoration-line:none;text-decoration-style:solid;text-indent:0;text-orientation:mixed;text-transform:none;white-space:normal"/><path d="m1867 182.48-.853.354v40l.853.353 20.354-20.354zm.147 1.56 18.793 18.794-18.794 18.793z" style="font-feature-settings:normal;font-variant-alternates:normal;font-variant-caps:normal;font-variant-east-asian:normal;font-variant-ligatures:normal;font-variant-numeric:normal;font-variant-position:normal;font-variation-settings:normal;inline-size:0;isolation:auto;mix-blend-mode:normal;shape-margin:0;shape-padding:0;text-decoration-color:#000;text-decoration-line:none;text-decoration-style:solid;text-indent:0;text-orientation:mixed;text-transform:none;white-space:normal"/></g><path d="M266.216 1002.077q-5.181 0-8.124 1.727t-2.943 4.765 2.943 4.799 8.124 1.76 8.124-1.759 2.943-4.799-2.943-4.766-8.124-1.727m-12.923 13.05q-2.975-1.727-4.446-3.997-1.503-2.304-1.503-5.183 0-6.366 4.861-9.788 4.863-3.455 13.946-3.455 8.956 0 13.882 3.392t4.927 9.531q0 3.231-1.567 5.63t-4.67 3.87h5.31v9.341H234.26v-9.34zm15.802-37.65H241.46v9.5h-7.198v-18.873h34.835q4.222 0 5.982-1.312 1.758-1.31 1.758-4.446v-7.485h7.198v10.108q0 6.686-3.455 9.597t-11.483 2.91zm-14.14-46.73q0 3.359 2.974 5.279 2.943 1.918 8.22 1.918t8.253-1.918q2.943-1.92 2.943-5.278 0-3.39-2.943-5.31-2.974-1.919-8.252-1.919t-8.221 1.919q-2.975 1.92-2.975 5.31m11.196 16.569q-8.67 0-13.722-4.478-5.086-4.51-5.086-12.09 0-7.614 5.086-12.092 5.054-4.51 13.72-4.51t13.755 4.51q5.054 4.478 5.054 12.09 0 7.58-5.054 12.09-5.085 4.48-13.753 4.48m16.067-70.216q1.376 2.367 2.047 5.086.703 2.719.703 5.854 0 8.284-4.99 12.955t-13.818 4.67q-8.86 0-13.85-4.702-5.023-4.702-5.023-12.987 0-2.879.673-5.534.671-2.687 2.079-5.342h8.572q-1.759 2.048-2.688 4.51-.959 2.432-.959 5.055 0 4.574 2.911 7.036 2.911 2.464 8.285 2.464t8.252-2.464 2.88-7.036q0-2.72-.896-5.087-.927-2.367-2.784-4.478zm-47.952-11.032v-9.373h26.133l-12.187-11.259v-11.355l13.37 13.563 22.455-14.33v10.364l-16.761 9.82 3.07 3.199h13.69v9.372zm26.613-37.098v-33.905h8.604v33.905zm-11.542-67.85h8.19q-1.665 2.59-2.497 5.404-.863 2.784-.863 5.598 0 3.134.927 4.734.896 1.6 2.688 1.6 2.558 0 4.158-6.846l.096-.351.64-2.687q1.215-5.118 3.933-7.485 2.688-2.399 7.294-2.399 5.534 0 8.316 3.646 2.752 3.615 2.752 10.908 0 3.23-.577 6.62-.544 3.392-1.663 6.878h-8.189q1.76-3.102 2.688-6.301.927-3.231.927-6.238 0-3.294-.96-4.99t-2.782-1.694q-1.791 0-2.752 1.215-.96 1.184-2.046 5.694l-.576 2.59q-1.216 5.374-3.806 7.837t-6.942 2.463q-5.181 0-8.06-3.742t-2.88-10.523q0-3.04.513-6.046.48-3.039 1.471-5.886m-1.121-14.779V727.79h28.628v-11.644h7.198v32.69h-7.198v-11.674h-21.43v9.18zm-17.433-9.18v-9.373h10.94v9.373zm17.433-29.115v-28.629h7.325l21.496 18.841v-18.84h7.004v29.395h-7.325L255.22 689.94v18.105zm34.066-68.667q1.344 3.263 2.015 6.653t.671 7.166q0 8.988-4.797 13.754-4.83 4.734-13.883 4.734-8.764 0-13.85-4.574t-5.086-12.476q0-7.964 4.734-12.347 4.701-4.414 13.275-4.414h3.805v24.278q4.223-.032 6.303-2.495t2.079-7.357q0-3.23-.928-6.364-.929-3.134-2.943-6.558zm-20.152 7.933q-3.71.064-5.598 1.919-1.918 1.823-1.918 5.405 0 3.231 1.982 5.151 1.952 1.919 5.567 2.271z"/><path fill-rule="nonzero" d="M254.83 282.83v320h12v-320zm0 779.97v310h12v-310z" clip-rule="nonzero" color="#000" style="font-feature-settings:normal;font-variant-alternates:normal;font-variant-caps:normal;font-variant-east-asian:normal;font-variant-ligatures:normal;font-variant-numeric:normal;font-variant-position:normal;font-variation-settings:normal;inline-size:0;isolation:auto;mix-blend-mode:normal;shape-margin:0;shape-padding:0;text-decoration-color:#000;text-decoration-line:none;text-decoration-style:solid;text-indent:0;text-orientation:mixed;text-transform:none;white-space:normal"/><g color="#000"><path d="m280.73 288.94-20-20-20 20z" style="font-feature-settings:normal;font-variant-alternates:normal;font-variant-caps:normal;font-variant-east-asian:normal;font-variant-ligatures:normal;font-variant-numeric:normal;font-variant-position:normal;font-variation-settings:normal;inline-size:0;isolation:auto;mix-blend-mode:normal;shape-margin:0;shape-padding:0;text-decoration-color:#000;text-decoration-line:none;text-decoration-style:solid;text-indent:0;text-orientation:mixed;text-transform:none;white-space:normal"/><path d="m260.73 268.23-20.354 20.354.354.854h40l.353-.854zm0 1.414 18.793 18.793h-37.586z" style="font-feature-settings:normal;font-variant-alternates:normal;font-variant-caps:normal;font-variant-east-asian:normal;font-variant-ligatures:normal;font-variant-numeric:normal;font-variant-position:normal;font-variation-settings:normal;inline-size:0;isolation:auto;mix-blend-mode:normal;shape-margin:0;shape-padding:0;text-decoration-color:#000;text-decoration-line:none;text-decoration-style:solid;text-indent:0;text-orientation:mixed;text-transform:none;white-space:normal"/></g><g color="#000"><path d="m240.73 1362.7 20 20 20-20z" style="font-feature-settings:normal;font-variant-alternates:normal;font-variant-caps:normal;font-variant-east-asian:normal;font-variant-ligatures:normal;font-variant-numeric:normal;font-variant-position:normal;font-variation-settings:normal;inline-size:0;isolation:auto;mix-blend-mode:normal;shape-margin:0;shape-padding:0;text-decoration-color:#000;text-decoration-line:none;text-decoration-style:solid;text-indent:0;text-orientation:mixed;text-transform:none;white-space:normal"/><path d="m240.73 1362.2-.354.854 20.354 20.353 20.354-20.353-.353-.854zm1.207 1h37.586l-18.793 18.793z" style="font-feature-settings:normal;font-variant-alternates:normal;font-variant-caps:normal;font-variant-east-asian:normal;font-variant-ligatures:normal;font-variant-numeric:normal;font-variant-position:normal;font-variation-settings:normal;inline-size:0;isolation:auto;mix-blend-mode:normal;shape-margin:0;shape-padding:0;text-decoration-color:#000;text-decoration-line:none;text-decoration-style:solid;text-indent:0;text-orientation:mixed;text-transform:none;white-space:normal"/></g><g fill-rule="nonzero" clip-rule="nonzero" color="#000"><path d="m2131.5 1974.3-78.945 123.16-106.76-100.01-34.678 142.12-133.45-59.928 13.35 145.68-145.68-13.348 59.928 133.45-142.12 34.678 100.01 106.76-123.16 78.945 129.26 68.504-90.856 114.66 144.5 22.822-48.701 137.95 144.08-25.334-1.273 146.29 128.05-70.744 46.295 138.77 98.14-108.49 88.849 116.22 57.596-134.47 121.77 81.076 10.812-145.89 114.35 30.02v-96.277l-10-38.094 10-.74V2252.3c.984-70.81-14.863-101.49-7.426-143.79l-137.95 48.703-22.822-144.5-114.66 90.854z" style="font-feature-settings:normal;font-variant-alternates:normal;font-variant-caps:normal;font-variant-east-asian:normal;font-variant-ligatures:normal;font-variant-numeric:normal;font-variant-position:normal;font-variation-settings:normal;inline-size:0;isolation:auto;mix-blend-mode:normal;shape-margin:0;shape-padding:0;text-decoration-color:#000;text-decoration-line:none;text-decoration-style:solid;text-indent:0;text-orientation:mixed;text-transform:none;white-space:normal"/><path d="M2131.4 1970.3a4 4 0 0 0-3.328 1.84l-76.352 119.12-103.26-96.727a4 4 0 0 0-6.62 1.97l-33.538 137.45-129.07-57.959a4 4 0 0 0-5.621 4.014l12.91 140.89-140.89-12.908a4 4 0 0 0-4.014 5.621l57.959 129.07-137.45 33.54a4 4 0 0 0-1.97 6.618l96.725 103.26-119.12 76.352a4 4 0 0 0 .285 6.903l125.01 66.252-87.869 110.89a4 4 0 0 0 2.512 6.435l139.75 22.072-47.102 133.42a4 4 0 0 0 4.465 5.27l139.35-24.502-1.233 141.48a4 4 0 0 0 5.936 3.535l123.84-68.42 44.773 134.21a4 4 0 0 0 6.76 1.418l94.916-104.92 85.928 112.4a4 4 0 0 0 6.855-.853l55.703-130.06 117.77 78.412a4 4 0 0 0 6.207-3.034l10.457-141.1 109.7 28.8a4 4 0 0 0 5.016-3.87v-96.277a4 4 0 0 0-.131-1.015l-8.78-33.443 5.206-.385a4 4 0 0 0 3.705-3.99v-549.777c.491-35.679-3.266-61.359-6.168-83.117-2.904-21.77-4.925-39.474-1.318-59.984a4 4 0 0 0-5.272-4.465l-133.41 47.104-22.072-139.75a4 4 0 0 0-6.436-2.512l-110.89 87.867-66.254-125.01a4 4 0 0 0-3.574-2.125zm-.287 11.922 65.299 123.21a4 4 0 0 0 6.018 1.262l109.29-86.6 21.754 137.74a4 4 0 0 0 5.283 3.146l131.91-46.574c-2.365 19.028-.585 36.255 2.027 55.836 2.915 21.85 6.588 46.906 6.1 82.004l-.002.055v546.07l-6.295.467a4 4 0 0 0-3.574 5.004l9.869 37.596v90.574l-109.34-28.703a4 4 0 0 0-5.004 3.574l-10.307 139.06-116.07-77.281a4 4 0 0 0-5.893 1.754l-54.9 128.18-84.689-110.78a4 4 0 0 0-6.142-.256l-93.547 103.41-44.13-132.28a4 4 0 0 0-5.728-2.235l-122.05 67.435 1.213-139.44a4 4 0 0 0-4.691-3.975l-137.34 24.148 46.422-131.49a4 4 0 0 0-3.147-5.283l-137.74-21.754 86.602-109.29a4 4 0 0 0-1.262-6.018l-123.21-65.297 117.4-75.25a4 4 0 0 0 .762-6.103l-95.332-101.77 135.47-33.055a4 4 0 0 0 2.701-5.526l-57.12-127.21 138.86 12.723a4 4 0 0 0 4.349-4.35l-12.725-138.86 127.21 57.122a4 4 0 0 0 5.525-2.701l33.055-135.47 101.77 95.332a4 4 0 0 0 6.104-.76l75.25-117.4z" style="font-feature-settings:normal;font-variant-alternates:normal;font-variant-caps:normal;font-variant-east-asian:normal;font-variant-ligatures:normal;font-variant-numeric:normal;font-variant-position:normal;font-variation-settings:normal;inline-size:0;isolation:auto;mix-blend-mode:normal;shape-margin:0;shape-padding:0;text-decoration-color:#000;text-decoration-line:none;text-decoration-style:solid;text-indent:0;text-orientation:mixed;text-transform:none;white-space:normal"/></g><path fill="#fff" d="M2059.227 2359.65q-.058 13.007-1.705 25.111-2.014 14.795-4.779 25.034-5.984 23.843-24.047 35.769-17.68 11.634-44.579 7.972-27.908-3.799-43.377-20.973-15.472-17.175-13.475-41.904.227-9.215 1.646-19.64.55-4.034 4.584-3.485l39.34 5.356q4.035.549 3.486 4.584-1.053 7.733-.96 14.596-.181 8.88 3.504 14.518 3.73 5.302 10.792 6.263 6.725.915 11.736-3.196t7.456-12q2.61-11.63 4.304-24.07 2.151-15.804 1.705-25.111-.292-7.917-4.114-12.547-3.44-4.92-9.829-5.79-5.043-.686-10.682 2.998-2.2 1.07-2.873.979-1.344-.184-2.797-2.093l-17.382-23.257q-1.161-1.529-.933-3.21.184-1.345 1.375-2.552l47.505-44.562q.765-.58.52-1.298-.245-.72-1.254-.857l-60.522-8.239q-1.682-.23-2.89-1.42-.825-1.482-.596-3.163l4.394-32.279q.229-1.681 1.375-2.552 1.527-1.162 3.209-.933l115.663 15.745q1.682.229 2.507 1.71 1.207 1.193.979 2.874l-4.578 33.624q-.366 2.69-2.368 4.815l-44.112 42.283q-.428.627-.52 1.299t.582.764q14.61 3.359 23.05 16.837 8.776 13.523 8.658 32zm112.608-61.371q9.078 1.236 13.664 5.284 2.461 2.048 1.33 5.318l-11.743 38.471q-.84 3.653-5.074 2.05-3.516-1.849-8.895-2.581-5.043-.687-8.925.154-7.917.292-13.723 7.722-5.76 7.092-7.179 17.516l-12.587 92.465q-.229 1.68-1.757 2.843-1.146.871-2.828.642l-39.34-5.355q-1.681-.229-2.889-1.42-.825-1.483-.597-3.164l22.383-164.423q.23-1.682 1.375-2.553 1.528-1.162 3.21-.933l39.34 5.355q1.681.23 2.507 1.711 1.207 1.192.978 2.873l-1.785 13.113q-.183 1.345.108 1.727.672.091 1.482-.826 11.779-18.601 30.944-15.992zm113.413-42.087q.229-1.681 1.375-2.553 1.528-1.161 3.209-.932l39.34 5.355q1.682.229 2.507 1.71 1.208 1.193.979 2.874l-30.942 227.294q-.229 1.681-1.756 2.843-1.146.871-2.828.642l-39.34-5.355q-1.681-.229-2.889-1.42-.825-1.483-.596-3.164l.732-5.38q.137-1.008-.536-1.1-.626-.428-1.39.153-13.172 11.22-32 8.658-23.2-3.158-32.955-19.555-9.708-16.733-6.092-43.296l8.88-65.23q3.707-27.235 17.444-40.091 14.118-13.147 36.982-10.035 7.398 1.007 15.055 5.132 7.704 3.789 13.422 12.101.581.764 1.253.856.718-.245.856-1.254zm-42.122 191.186q6.052.824 10.973-2.616 4.92-3.44 6.845-10.028l9.154-67.247q-.094-6.863-3.915-11.493t-9.875-5.453q-7.06-.961-12.165 3.824t-6.247 13.19l-7.964 58.505q-1.145 8.407 2.494 14.381t10.7 6.937m-324.956 51.418q-.126.923-.966 1.562-.63.478-1.552.353l-38.604-5.255q-.924-.126-1.05.797l-3.973 29.184q-.125.923.798 1.05l22.166 3.017q.922.125 1.375.94.664.654.539 1.577l-2.44 17.918q-.125.923-.965 1.562-.63.478-1.552.352l-22.165-3.017q-.924-.126-1.05.798l-3.997 29.368q-.126.923.797 1.05l38.604 5.254q.924.126 1.377.94.664.655.538 1.579l-2.439 17.916q-.126.924-.965 1.561-.63.48-1.552.354l-63.355-8.624q-.923-.126-1.587-.781-.453-.814-.328-1.737l16.997-124.859q.126-.923.756-1.403.84-.637 1.763-.512l63.353 8.625q.924.125 1.377.939.664.655.538 1.579zm.295 111.256q-.923-.125-1.587-.78-.453-.814-.327-1.738l16.996-124.858q.126-.924.756-1.402.84-.639 1.763-.513l33.431 4.55q16.808 2.289 25.635 13.462t6.613 27.426l-7.845 57.629q-2.213 16.254-13.704 24.66t-28.3 6.12zm26.996-20.03q-.126.924.798 1.05l8.336.947q5.012.494 8.705-3.143 3.695-3.634 4.784-10.26l7.392-54.303q.956-7.018-1.632-11.51-2.586-4.49-7.943-5.219l-8.127-1.106q-.923-.126-1.049.797zm61.092 32.022q-.924-.126-1.587-.782-.454-.813-.328-1.737l16.997-124.858q.126-.923.756-1.402.839-.639 1.762-.513l21.611 2.942q.924.126 1.377.94.664.655.538 1.578l-16.997 124.859q-.126.923-.966 1.562-.629.478-1.552.353zm129.57-114.066q.923.126 1.377.94.663.655.538 1.578l-2.44 17.917q-.125.924-.965 1.562-.63.479-1.553.353l-23.088-3.143q-.923-.125-1.049.798l-14.13 103.803q-.126.923-.966 1.562-.63.478-1.553.352l-21.61-2.941q-.924-.126-1.588-.782-.453-.813-.327-1.737l14.13-103.802q.126-.924-.797-1.05l-22.165-3.017q-.924-.125-1.587-.781-.454-.814-.328-1.737l2.44-17.917q.125-.923.755-1.402.839-.638 1.762-.513zm-.46 131.641q-.924-.125-1.588-.78-.453-.815-.328-1.738l16.997-124.858q.126-.924.756-1.402.84-.639 1.763-.513l21.61 2.942q.924.125 1.377.94.664.654.538 1.578l-16.997 124.858q-.126.924-.965 1.562-.63.479-1.553.353zm75.598 11.805q-16.994-2.313-25.794-13.67t-6.538-27.98l8.046-59.106q2.263-16.624 13.78-25.215t28.509-6.278 25.794 13.67q8.985 11.382 6.722 28.006l-8.046 59.106q-2.263 16.623-13.964 25.19-11.516 8.59-28.51 6.277m3.043-22.35q5.172.705 8.79-2.378 3.643-3.266 4.448-9.177l8.348-61.322q.804-5.91-1.86-9.848-2.636-4.121-7.808-4.825t-8.814 2.562q-3.433 3.108-4.238 9.018l-8.348 61.323q-.804 5.91 1.649 10.006 2.662 3.937 7.833 4.641m119.2-92.006q.126-.924.756-1.402.839-.639 1.762-.513l21.427 2.917q.923.126 1.376.94.664.655.538 1.578l-16.997 124.859q-.125.923-.965 1.562-.63.478-1.553.352l-24.381-3.319q-1.847-.251-2.15-2.173l-13.173-74.599q-.11-.58-.688-.47-.37-.05-.446.504l-9.47 70.951q-.126.924-.965 1.562-.63.48-1.553.354l-21.425-2.916q-.925-.126-1.587-.782-.455-.814-.329-1.738l16.997-124.858q.126-.924.756-1.402.839-.639 1.763-.513l24.197 3.294q1.847.251 2.15 2.174l13.357 74.623q.109.58.48.63.578-.11.653-.663zm-385.28 118.313q.115-.846.96-.73l4.228.575q.846.115.73.96l-7.826 57.497q-.115.845-.96.73l-4.99-.68q-.675-.091-.837-.801l-10.537-45.959q-.05-.265-.23-.204-.17-.023-.204.231l-5.833 43.472q-.115.845-.96.73l-4.312-.587q-.846-.116-.731-.96l7.827-57.497q.115-.846.96-.73l4.906.667q.675.092.837.803l10.61 46.055q.05.265.219.288.18-.062.214-.314zm22.988 63.178q-6.51-.887-10.017-5.498-3.42-4.6-2.511-11.279l4.213-30.946q.909-6.68 5.435-10.197 4.61-3.506 11.122-2.62 6.595.898 10.101 5.509t2.597 11.29l-4.213 30.947q-.898 6.595-5.52 10.185-4.611 3.506-11.207 2.609m.714-5.242q3.89.53 6.603-1.685 2.808-2.288 3.36-6.346l4.294-31.539q.564-4.142-1.542-7.013-2.012-2.944-5.9-3.473-3.806-.518-6.53 1.781-2.713 2.215-3.277 6.357l-4.293 31.538q-.553 4.059 1.458 7.002 2.022 2.86 5.827 3.377m32.859 9.207q-.761-.103-.827-.887l-3.334-59.016.023-.169q.103-.762.864-.658l4.482.61q.845.115.827.888l1.893 45.556q.061.181.146.193t.192-.146l12.903-43.543q.273-.738.95-.646l3.89.53q.76.103.74.875l1.134 45.454q.061.18.145.192t.193-.145l13.326-43.486q.272-.738.949-.646l4.482.61q.422.057.557.334.219.288.076.7l-18.31 56.07q-.188.749-1.035.634l-4.142-.564q-.677-.092-.743-.876l-1.025-45.611q-.061-.18-.23-.203-.085-.012-.108.157l-13.01 43.7q-.188.75-.949.646zm69.459 9.456q-.761-.104-.827-.888l-3.334-59.016.023-.168q.104-.762.865-.659l4.481.61q.846.115.827.888l1.894 45.557q.06.18.145.192t.192-.145l12.904-43.544q.273-.738.95-.646l3.888.53q.761.103.742.876l1.133 45.453q.062.181.146.193t.191-.146l13.328-43.486q.272-.738.948-.646l4.482.61q.422.058.557.335.22.288.076.7l-18.31 56.069q-.188.75-1.035.634l-4.142-.564q-.676-.092-.742-.876l-1.025-45.611q-.062-.18-.231-.203-.084-.011-.107.157l-13.01 43.7q-.189.75-.95.646zm45.084 6.137q-.845-.115-.73-.96l7.827-57.497q.115-.846.96-.731l4.313.587q.845.115.73.961l-7.827 57.497q-.115.845-.96.73zm51.367-53.359q.845.115.73.96l-.483 3.552q-.116.846-.96.73l-11.162-1.519q-.338-.046-.384.292l-7.182 52.762q-.115.845-.961.73l-4.313-.587q-.845-.115-.73-.96l7.183-52.762q.046-.338-.292-.384l-10.485-1.427q-.846-.115-.73-.962l.483-3.55q.115-.846.961-.73zm31.487 5.195q.115-.846.96-.73l4.312.587q.847.115.732.96l-7.827 57.497q-.115.845-.962.73l-4.312-.587q-.845-.115-.73-.96l3.51-25.79q.047-.338-.291-.384l-15.051-2.049q-.337-.045-.383.292l-3.511 25.79q-.115.845-.961.73l-4.312-.587q-.846-.115-.73-.96l7.826-57.497q.115-.846.96-.73l4.313.587q.845.115.73.96l-3.5 25.704q-.045.338.294.384l15.05 2.048q.338.046.384-.291zm-412.227 74.578q-.7-.096-.605-.796l6.484-47.635q.096-.7.796-.605l3.573.486q.701.096.606.796l-5.95 43.712q-.039.28.24.319l16.042 2.183q.701.096.606.796l-.4 2.942q-.096.7-.797.605zm37.671 5.733q-5.394-.734-8.299-4.554-2.834-3.81-2.081-9.345l3.49-25.638q.753-5.534 4.504-8.449 3.82-2.904 9.214-2.17 5.463.744 8.369 4.564 2.904 3.82 2.15 9.354l-3.49 25.639q-.743 5.463-4.573 8.438-3.82 2.905-9.284 2.161m.591-4.342q3.223.438 5.47-1.396 2.327-1.896 2.785-5.258l3.557-26.129q.467-3.432-1.278-5.81-1.666-2.44-4.888-2.878-3.152-.43-5.409 1.476-2.248 1.834-2.715 5.267l-3.557 26.129q-.458 3.362 1.209 5.8 1.674 2.368 4.826 2.798m31.117 8.66q-5.395-.735-8.188-4.325-2.783-3.661-2.059-8.985l3.643-26.76q.725-5.323 4.376-8.037 3.661-2.784 9.055-2.05t8.178 4.396q2.854 3.67 2.13 8.994l-.41 3.012q-.096.7-.796.605l-3.573-.486q-.701-.095-.606-.796l.43-3.152q.448-3.292-1.177-5.51-1.615-2.29-4.767-2.719-3.082-.42-5.32 1.345-2.168 1.774-2.607 4.996l-3.662 26.9q-.438 3.222 1.177 5.511 1.685 2.298 4.767 2.718 3.152.429 5.31-1.275 2.168-1.774 2.617-5.066l1.22-8.967q.038-.28-.242-.318l-6.025-.82q-.7-.095-.605-.796l.4-2.943q.096-.7.797-.604l10.577 1.44q.7.095.605.796l-1.745 12.82q-.725 5.324-4.455 8.098-3.651 2.713-9.046 1.979zm21.681 2.346q-.7-.096-.605-.796l6.485-47.635q.095-.7.796-.605l3.573.486q.7.096.604.796l-6.485 47.635q-.095.7-.795.605zm24.988 4.007q-5.394-.734-8.237-4.475-2.775-3.731-2.021-9.265l3.538-25.989q.743-5.463 4.414-8.317 3.74-2.844 9.134-2.11 5.463.744 8.238 4.475 2.854 3.67 2.1 9.204l-.162 1.191q-.095.7-.796.605l-3.67-.286q-.701-.095-.606-.795l.238-1.751q.449-3.293-1.166-5.582t-4.767-2.718q-3.082-.419-5.32 1.345-2.168 1.774-2.617 5.067l-3.642 26.759q-.449 3.292 1.166 5.581 1.686 2.298 4.767 2.718 3.152.429 5.32-1.345t2.617-5.066l.238-1.751q.096-.702.796-.606l3.614.707q.7.095.605.796l-.153 1.12q-.753 5.534-4.494 8.379-3.74 2.843-9.134 2.109m21.278 9.76q-.56-.077-.773-.606-2.008-5.696-2.7-13.71-.614-8.074.559-16.69 1.201-8.827 4.04-16.574t6.375-12.76q.347-.452.907-.376l3.432.468q.35.047.452.347.183.239.004.5-3.135 5.21-5.754 12.916t-3.772 16.182q-1.135 8.336-.653 16.321.493 7.916 2.132 13.703l.03.29q-.076.56-.706.475zm33.3-2.936q-.63-.086-.685-.735l-.568-8.925q.02-.14-.112-.23-.06-.078-.2-.097l-12.68-1.726q-.14-.02-.289.03-.08.062-.099.201l-2.934 8.449q-.155.62-.857.525l-3.572-.486q-.35-.048-.532-.287-.111-.229.007-.57l16.99-46.204q.227-.611.857-.526l4.204.573q.7.095.685.735l4.163 49.084-.02.14q-.085.63-.716.545zm-13.093-15.981q-.038.28.172.309l11.068 1.507q.21.028.248-.252l-1.856-28.293q-.04-.22-.111-.23t-.169.192zm23.993 17.465q-.7-.096-.605-.796l6.484-47.635q.096-.7.796-.605l3.573.486q.7.096.604.796l-5.95 43.712q-.038.28.242.319l16.042 2.183q.7.096.605.796l-.4 2.942q-.095.7-.796.605zm59.9-41.904q5.112.696 7.75 4.909 2.648 4.142 1.818 10.236-.82 6.024-4.408 9.317-3.577 3.223-8.62 2.536l-7.217-.982q-.28-.038-.319.242l-2.88 21.155q-.095.7-.794.606l-3.574-.487q-.7-.095-.605-.796l6.494-47.704q.096-.7.796-.605zm-3.749 22.821q3.152.43 5.456-1.825t2.878-6.458-1.047-6.992q-1.608-2.86-4.76-3.288l-6.375-.868q-.28-.038-.319.242l-2.45 18.004q-.039.28.242.318zm35.405 31.546q-.63-.086-.764-.675l-4.199-22.618q-.042-.22-.252-.248l-6.094-.83q-.28-.038-.32.242l-2.917 21.436q-.095.7-.796.605l-3.572-.486q-.7-.096-.605-.796l6.484-47.635q.096-.7.796-.605l11.559 1.573q5.112.696 7.75 4.909 2.648 4.142 1.828 10.166-.62 4.553-3.03 7.579-2.41 3.024-5.953 3.898-.29.031-.258.321l4.65 22.966.032.29q-.067.49-.696.404zm-8.277-46.647q-.28-.039-.319.242l-2.412 17.722q-.038.28.242.319l6.305.858q3.222.439 5.517-1.747 2.305-2.254 2.868-6.387t-1.056-6.922-4.84-3.227zm30.49 50.277q-5.394-.735-8.299-4.554-2.834-3.811-2.081-9.345l3.49-25.639q.753-5.534 4.504-8.449 3.82-2.904 9.214-2.17 5.463.744 8.369 4.564 2.904 3.82 2.15 9.354l-3.49 25.639q-.743 5.464-4.573 8.438-3.82 2.905-9.284 2.162m.591-4.343q3.222.438 5.47-1.396 2.327-1.896 2.785-5.258l3.557-26.129q.467-3.432-1.278-5.81-1.666-2.44-4.888-2.878-3.152-.429-5.409 1.476-2.248 1.834-2.715 5.267l-3.557 26.13q-.458 3.361 1.208 5.8 1.675 2.368 4.827 2.797m39.374-40.879q5.113.696 7.75 4.908 2.648 4.142 1.819 10.236-.82 6.025-4.408 9.318-3.578 3.223-8.621 2.536l-7.217-.982q-.28-.038-.317.242l-2.88 21.155q-.095.7-.796.605l-3.573-.486q-.7-.096-.605-.796l6.494-47.704q.095-.7.796-.605zm-3.748 22.821q3.152.43 5.456-1.826t2.877-6.458-1.046-6.992q-1.608-2.859-4.76-3.288l-6.376-.868q-.279-.038-.317.243l-2.451 18.004q-.038.28.241.317zm44.158-13.485q-.095.7-.796.605l-16.252-2.212q-.28-.038-.319.242l-2.364 17.373q-.039.28.242.318l10.228 1.392q.7.095.605.796l-.41 3.012q-.096.7-.796.605l-10.228-1.392q-.28-.038-.318.242l-2.375 17.443q-.038.28.242.319l16.252 2.212q.7.096.606.796l-.401 2.943q-.095.7-.796.604l-20.805-2.832q-.7-.095-.605-.796l6.484-47.635q.096-.7.796-.605l20.805 2.832q.7.096.606.796zm21.27 49.118q-.631-.086-.765-.675l-4.198-22.618q-.042-.22-.252-.249l-6.094-.83q-.281-.037-.32.243l-2.917 21.435q-.096.7-.796.606l-3.572-.487q-.7-.095-.606-.796l6.485-47.634q.095-.7.796-.605l11.558 1.573q5.113.696 7.751 4.908 2.647 4.142 1.827 10.167-.62 4.553-3.03 7.578t-5.953 3.899q-.29.031-.257.321l4.65 22.965.032.29q-.067.49-.696.405zm-8.277-46.648q-.28-.038-.319.243l-2.413 17.722q-.038.28.243.319l6.305.858q3.222.439 5.517-1.747 2.305-2.255 2.867-6.387t-1.056-6.922-4.84-3.227zm47.85 2.079q.7.095.605.795l-.4 2.943q-.096.7-.797.604l-9.246-1.258q-.28-.038-.319.242l-5.95 43.712q-.096.7-.796.605l-3.572-.486q-.7-.096-.606-.796l5.951-43.712q.038-.28-.242-.319l-8.686-1.182q-.7-.095-.605-.796l.4-2.942q.095-.7.796-.605zm2.24 50.261q-.7-.095-.605-.796l6.485-47.634q.095-.701.796-.606l3.573.487q.7.095.604.796l-6.485 47.634q-.095.7-.794.606zm42.741-40.404q-.095.7-.796.605l-16.252-2.212q-.28-.038-.319.242l-2.364 17.373q-.039.28.242.317l10.228 1.393q.7.095.605.796l-.41 3.012q-.096.7-.796.605l-10.228-1.392q-.28-.039-.318.242l-2.375 17.443q-.038.28.242.319l16.252 2.212q.7.095.606.796l-.401 2.943q-.095.7-.796.604l-20.805-2.832q-.7-.096-.605-.796l6.484-47.635q.096-.7.796-.605l20.805 2.832q.7.096.606.796zm11.081 48.336q-5.183-.705-7.939-4.576-2.755-3.871-2.001-9.406l.219-1.61q.095-.7.796-.606l3.433.468q.7.095.604.796l-.19 1.4q-.506 3.712 1.072 6.283 1.585 2.498 4.598 2.908 2.942.401 5.2-1.504t2.743-5.477q.324-2.382-.428-4.196-.673-1.876-2.042-3.346-1.29-1.532-4.43-4.67-3.15-3.07-4.933-5.167-1.774-2.168-2.753-4.941-.907-2.763-.43-6.266.743-5.464 4.324-8.187 3.591-2.793 8.635-2.107 5.324.725 8 4.657 2.754 3.87 1.973 9.615l-.239 1.752q-.095.7-.796.605l-3.503-.477q-.7-.095-.605-.796l.248-1.822q.506-3.713-1.08-6.212-1.507-2.56-4.589-2.979-2.802-.381-4.9 1.402-2.089 1.714-2.585 5.356-.295 2.172.247 3.958.62 1.726 2.031 3.416t4.24 4.501q3.784 3.655 5.548 5.892 1.843 2.179 2.65 4.643.816 2.394.377 5.616-.782 5.744-4.551 8.799-3.76 2.984-8.944 2.278m30.637-50.832q.56.077.773.605 2.018 5.626 2.63 13.7.684 8.084-.489 16.7-1.21 8.897-4.06 16.715-2.837 7.748-6.355 12.62-.347.452-.907.376l-3.363-.458q-.35-.047-.521-.356-.112-.23.067-.49 3.143-5.281 5.753-12.917 2.619-7.706 3.763-16.111 1.135-8.337.643-16.252-.483-7.985-2.103-13.914-.06-.079-.03-.29t.187-.33q.229-.113.51-.075zm9.269 39.41q-.7-.095-.605-.795l3.89-31.72q.095-.7.796-.606l3.572.487q.7.095.605.796l-4.8 31.596q-.096.7-.797.605zm-.806 15.873q-1.75-.238-2.728-1.441-.898-1.265-.669-2.945.239-1.752 1.432-2.66 1.272-.968 3.024-.73 1.681.23 2.65 1.502.977 1.204.739 2.956-.23 1.68-1.501 2.65-1.265.897-2.947.668"/></svg>