<svg width="404" height="642" viewBox="0 0 404 642" fill="none" xmlns="http://www.w3.org/2000/svg">
<g clip-path="url(#clip0_153_32)">
<path d="M0 0H404V642H0V0Z" fill="url(#paint0_linear_153_32)"/>
<path fill-rule="evenodd" clip-rule="evenodd" d="M52.432 70.896H50.336V75.104L51.968 75.408V76H47.424V75.472L48.784 75.104V66.32L47.424 65.888V65.376H53.984L55.392 65.312V68.144H54.816L53.936 66.096H50.336V70.16H52.432L52.88 68.848H53.392V72.112H52.816L52.432 70.896ZM56.4 76V75.456L57.408 75.104V69.728L56.336 69.52V69.04L58.512 68.272H58.592L58.688 70.272H58.72L59.232 69.584C60 68.544 60.4 68.24 60.928 68.24C61.44 68.24 61.712 68.56 61.712 69.04C61.712 69.456 61.472 69.808 61.2 70.144L59.968 69.728C59.616 70.016 59.232 70.336 58.752 70.944V75.168L60.16 75.44V76H56.4ZM64.592 76.24C63.744 76.24 62.672 75.648 62.672 74.368C62.672 73.088 63.6 72.512 65.248 72.08L66.896 71.648V70.816C66.864 69.584 66.224 68.944 65.376 68.944C64.896 68.944 64.496 69.152 64.368 69.232L64.304 70.816C64.304 70.816 63.904 70.864 63.664 70.864C63.152 70.864 62.896 70.608 62.896 70.176C62.896 69.44 64.304 68.272 65.952 68.272C67.568 68.272 68.272 69.008 68.272 70.592V74.912C68.272 75.232 68.352 75.344 68.8 75.344H69.6V75.792C69.6 75.792 68.672 76.192 68.08 76.192C67.264 76.192 66.928 75.632 66.928 74.944H66.88C65.984 75.792 65.6 76.24 64.592 76.24ZM65.44 75.152C66.208 75.152 66.704 74.576 66.896 74.288V72.176L65.36 72.688C64.608 72.944 64.128 73.248 64.128 73.92C64.128 74.736 64.752 75.152 65.44 75.152ZM70.448 76V75.456L71.456 75.12V69.728L70.384 69.472V69.04L72.352 68.272H72.432L72.784 69.728H72.8C73.072 69.408 74.08 68.272 75.424 68.272C76.912 68.272 77.6 68.912 77.6 70.96V75.136L78.64 75.472V76H75.328V75.456L76.24 75.136V71.088C76.176 69.968 75.84 69.344 74.768 69.344C73.728 69.344 72.816 70.224 72.816 70.256V75.136L73.872 75.456V76H70.448ZM80.512 75.104V65.44L79.456 65.024V64.592L81.872 64.064V75.136L82.928 75.456V76H79.504V75.456L80.512 75.104ZM86.352 76.272C85.872 76.288 85.376 76.016 84.704 75.152L81.952 71.552V71.52L82.528 71.344L84.768 69.296L83.792 68.976V68.48H87.024V68.928L85.952 69.2L83.36 71.392L87.184 75.92C87.184 75.92 86.944 76.256 86.352 76.272ZM96.864 76.4C92.8 76.4 91.328 73.6 91.328 71.056C91.328 67.664 93.92 65.104 97.392 65.104C98.896 65.104 99.904 65.504 100.736 65.968L100.832 68.64H100.24L99.36 66.496C98.88 66.176 98.192 65.888 97.248 65.888C94.928 65.888 93.088 67.728 93.088 70.496C93.088 73.792 94.976 75.6 97.376 75.6C98.368 75.6 99.152 75.184 99.568 74.88L100.768 72.624H101.36L100.944 75.312C99.648 75.984 98.416 76.4 96.864 76.4ZM107.296 76V75.456L108.208 75.136V71.088C108.144 69.968 107.808 69.344 106.736 69.344C105.696 69.344 104.784 70.224 104.784 70.256V75.136L105.84 75.456V76H102.416V75.456L103.424 75.104V65.328L102.352 64.912V64.48L104.784 64.064V69.728C105.056 69.392 106.064 68.272 107.392 68.272C108.88 68.272 109.568 68.912 109.568 70.96V75.136L110.608 75.472V76H107.296ZM111.52 76V75.456L112.592 75.104V69.632L111.648 69.296V68.736L113.92 68.272V75.12L115.12 75.456V76H111.52ZM113.152 66.016C112.624 66.016 112.16 65.568 112.16 65.04C112.16 64.512 112.624 64.064 113.152 64.064C113.664 64.064 114.128 64.512 114.128 65.04C114.128 65.568 113.664 66.016 113.152 66.016ZM125.68 76V75.456L126.592 75.136V71.088C126.528 69.968 126.192 69.344 125.12 69.344C124.176 69.344 123.408 70 123.168 70.256V75.136L124.208 75.472V76H120.896V75.456L121.808 75.136V71.088C121.744 69.968 121.408 69.344 120.336 69.344C119.296 69.344 118.384 70.224 118.384 70.256V75.136L119.44 75.456V76H116.016V75.456L117.024 75.12V69.728L115.952 69.472V69.04L117.92 68.272H118L118.352 69.728H118.368C118.64 69.408 119.648 68.272 120.992 68.272C122.384 68.272 122.88 68.848 123.024 69.856H123.056C123.216 69.648 124.304 68.272 125.792 68.272C127.264 68.272 127.952 68.912 127.952 70.96V75.136L128.992 75.472V76H125.68ZM133.472 76.256C130.816 76.256 129.968 73.904 129.968 72.528C129.968 70.144 131.504 68.272 133.744 68.272C135.52 68.272 136.56 69.472 136.56 71.664H131.264V71.824C131.264 73.808 132.4 75.04 134.064 75.04C135.424 75.04 136.288 73.84 136.288 73.84L136.608 74.032C136.608 74.032 135.856 76.256 133.472 76.256ZM133.392 68.976C132.384 68.976 131.584 69.856 131.344 71.04H134.96C134.944 69.952 134.448 68.976 133.392 68.976ZM137.936 76V75.456L138.944 75.104V69.728L137.872 69.52V69.04L140.048 68.272H140.128L140.224 70.272H140.256L140.768 69.584C141.536 68.544 141.936 68.24 142.464 68.24C142.976 68.24 143.248 68.56 143.248 69.04C143.248 69.456 143.008 69.808 142.736 70.144L141.504 69.728C141.152 70.016 140.768 70.336 140.288 70.944V75.168L141.696 75.44V76H137.936ZM145.456 71.824C145.456 73.584 146.192 75.552 147.904 75.552C149.184 75.552 149.968 74.256 149.968 72.624C149.968 70.272 148.976 68.928 147.536 68.928C146.224 68.928 145.456 70.192 145.456 71.824ZM147.712 76.256C145.296 76.256 144 74.448 144 72.384C144 70.096 145.632 68.24 147.712 68.24C149.984 68.24 151.424 69.664 151.424 72.08C151.424 74.4 149.824 76.256 147.712 76.256ZM49.852 106.096H65.44L67.852 105.808L68.212 112.324H66.916L64.972 107.716H59.392V127.984L62.776 128.812V130H52.48V128.812L55.9 127.984V107.716H50.32L48.376 112.324H47.08L47.404 105.808L49.852 106.096ZM81.208 130V128.776L83.26 128.056V118.948C83.116 116.428 82.36 115.024 79.948 115.024C77.608 115.024 75.556 117.004 75.556 117.076V128.056L77.932 128.776V130H70.228V128.776L72.496 127.984V105.988L70.084 105.052V104.08L75.556 103.144V115.888C76.168 115.132 78.436 112.612 81.424 112.612C84.772 112.612 86.32 114.052 86.32 118.66V128.056L88.66 128.812V130H81.208ZM98.776 130.576C92.8 130.576 90.892 125.284 90.892 122.188C90.892 116.824 94.348 112.612 99.388 112.612C103.384 112.612 105.724 115.312 105.724 120.244H93.808V120.604C93.808 125.068 96.364 127.84 100.108 127.84C103.168 127.84 105.112 125.14 105.112 125.14L105.832 125.572C105.832 125.572 104.14 130.576 98.776 130.576ZM98.596 114.196C96.328 114.196 94.528 116.176 93.988 118.84H102.124C102.088 116.392 100.972 114.196 98.596 114.196ZM116.596 128.812L116.128 122.44H117.496L119.476 127.624C120.232 128.236 121.528 129.064 123.652 129.064C126.424 129.064 128.476 127.336 128.476 124.6C128.476 122.764 127.612 121.108 125.02 120.028L121.348 118.48C118.18 117.112 116.452 115.312 116.452 112.288C116.452 108.4 119.98 105.376 124.912 105.376C127.18 105.376 129.376 106.168 130.492 106.852L130.708 112.792H129.484L127.612 107.896C127.396 107.752 126.28 106.888 124.444 106.888C121.636 106.888 119.836 108.832 119.836 110.92C119.836 113.044 120.988 114.16 122.896 115.024L127.18 116.968C130.708 118.552 131.968 120.568 131.968 123.232C131.968 127.732 127.396 130.684 123.364 130.684C121.024 130.684 118.288 129.928 116.596 128.812ZM145.288 130V128.776L147.34 128.056V118.948C147.196 116.428 146.44 115.024 144.028 115.024C141.688 115.024 139.636 117.004 139.636 117.076V128.056L142.012 128.776V130H134.308V128.776L136.576 127.984V105.988L134.164 105.052V104.08L139.636 103.144V115.888C140.248 115.132 142.516 112.612 145.504 112.612C148.852 112.612 150.4 114.052 150.4 118.66V128.056L152.74 128.812V130H145.288ZM159.76 130.54C157.852 130.54 155.44 129.208 155.44 126.328C155.44 123.448 157.528 122.152 161.236 121.18L164.944 120.208V118.336C164.872 115.564 163.432 114.124 161.524 114.124C160.444 114.124 159.544 114.592 159.256 114.772L159.112 118.336C159.112 118.336 158.212 118.444 157.672 118.444C156.52 118.444 155.944 117.868 155.944 116.896C155.944 115.24 159.112 112.612 162.82 112.612C166.456 112.612 168.04 114.268 168.04 117.832V127.552C168.04 128.272 168.22 128.524 169.228 128.524H171.028V129.532C171.028 129.532 168.94 130.432 167.608 130.432C165.772 130.432 165.016 129.172 165.016 127.624H164.908C162.892 129.532 162.028 130.54 159.76 130.54ZM161.668 128.092C163.396 128.092 164.512 126.796 164.944 126.148V121.396L161.488 122.548C159.796 123.124 158.716 123.808 158.716 125.32C158.716 127.156 160.12 128.092 161.668 128.092ZM172.324 138.64V137.416L174.592 136.624V115.888L172.18 115.312V114.34L176.608 112.612H176.788L177.472 115.492C178.192 114.592 180.064 112.612 182.872 112.612C186.436 112.612 189.604 114.916 189.604 120.784C189.604 126.364 184.852 130.576 179.992 130.576C179.164 130.576 178.372 130.432 177.652 130.216V136.552L180.928 137.524V138.64H172.324ZM181.288 114.952C179.632 114.952 178.336 115.852 177.652 116.464V127.732C177.976 128.056 179.056 128.992 181.18 128.992C183.808 128.992 186.508 126.544 186.508 121.792C186.508 117.652 184.384 114.952 181.288 114.952ZM200.08 130.576C194.104 130.576 192.196 125.284 192.196 122.188C192.196 116.824 195.652 112.612 200.692 112.612C204.688 112.612 207.028 115.312 207.028 120.244H195.112V120.604C195.112 125.068 197.668 127.84 201.412 127.84C204.472 127.84 206.416 125.14 206.416 125.14L207.136 125.572C207.136 125.572 205.444 130.576 200.08 130.576ZM199.9 114.196C197.632 114.196 195.832 116.176 195.292 118.84H203.428C203.392 116.392 202.276 114.196 199.9 114.196ZM50.572 156.604C50.572 160.564 52.228 164.992 56.08 164.992C58.96 164.992 60.724 162.076 60.724 158.404C60.724 153.112 58.492 150.088 55.252 150.088C52.3 150.088 50.572 152.932 50.572 156.604ZM55.648 166.576C50.212 166.576 47.296 162.508 47.296 157.864C47.296 152.716 50.968 148.54 55.648 148.54C60.76 148.54 64 151.744 64 157.18C64 162.4 60.4 166.576 55.648 166.576ZM66.484 166V164.776L68.752 164.02V150.88H66.16V149.404L68.716 148.684V148.54C68.716 143.32 72.424 139.144 76.348 139.144C79.192 139.144 80.956 140.8 80.956 142.384C80.956 143.32 80.272 144.256 79.084 144.256C78.616 144.256 78.22 144.112 78.22 144.112L77.356 141.124C77.356 141.124 76.708 140.692 75.7 140.692C73.684 140.692 71.812 142.096 71.812 146.236V149.08H76.708V150.916H71.812V164.02L75.052 164.776V166H66.484ZM93.088 143.428V162.652C93.268 164.38 95.86 164.632 97.444 164.596C103.492 164.452 106.84 159.916 106.84 154.516C106.84 145.732 100.432 143.032 93.088 143.428ZM86.536 166V164.812L89.596 163.984V144.184L86.536 143.248V142.096L97.336 141.952C105.976 141.844 110.656 146.848 110.656 153.652C110.656 160.924 105.004 166.216 95.644 166.108L86.536 166ZM121.78 166.576C115.804 166.576 113.896 161.284 113.896 158.188C113.896 152.824 117.352 148.612 122.392 148.612C126.388 148.612 128.728 151.312 128.728 156.244H116.812V156.604C116.812 161.068 119.368 163.84 123.112 163.84C126.172 163.84 128.116 161.14 128.116 161.14L128.836 161.572C128.836 161.572 127.144 166.576 121.78 166.576ZM121.6 150.196C119.332 150.196 117.532 152.176 116.992 154.84H125.128C125.092 152.392 123.976 150.196 121.6 150.196ZM137.548 166.684C135.712 166.684 134.056 166 132.868 165.28L132.292 160.24H133.48L135.316 164.2C135.856 164.668 136.612 165.28 138.268 165.28C140.104 165.28 141.364 164.2 141.364 162.544C141.364 161.212 140.608 160.132 137.872 158.908L136.432 158.26C133.948 157.144 132.724 155.848 132.724 153.544C132.724 150.772 135.64 148.54 138.916 148.54C140.248 148.54 141.76 148.936 143.164 149.692L143.344 153.976H142.264L140.788 150.844C140.356 150.484 139.636 149.944 138.376 149.944C136.648 149.944 135.64 151.06 135.64 152.428C135.64 153.868 136.396 154.768 138.556 155.74L140.104 156.424C143.308 157.828 144.352 159.412 144.352 161.356C144.352 164.344 141.04 166.684 137.548 166.684ZM146.8 166V164.776L149.212 163.984V151.672L147.088 150.916V149.656L152.2 148.612V164.02L154.9 164.776V166H146.8ZM150.472 143.536C149.284 143.536 148.24 142.528 148.24 141.34C148.24 140.152 149.284 139.144 150.472 139.144C151.624 139.144 152.668 140.152 152.668 141.34C152.668 142.528 151.624 143.536 150.472 143.536ZM173.656 151.168L169.552 150.952L169.516 151.06C170.416 151.816 171.352 153.148 171.352 155.056C171.352 158.98 167.788 161.5 164.188 161.5C163.288 161.5 162.424 161.356 161.596 161.068C160.768 161.716 160.336 162.328 160.336 162.868C160.336 163.372 160.84 164.056 161.668 164.092L168.472 164.488C172.036 164.704 173.62 166.288 173.62 168.52C173.62 171.508 169.768 175.18 163.072 175.18C159.652 175.18 156.556 173.74 156.556 171.112C156.556 169.78 157.456 168.268 159.184 167.332L160.048 166.864V166.792L157.492 164.344C158.212 162.508 159.004 161.608 160.336 160.492C158.68 159.484 157.492 157.72 157.492 155.2C157.492 151.276 160.552 148.612 164.404 148.612C166.06 148.612 167.212 149.008 168.652 149.512L173.656 148.972V151.168ZM164.62 159.952C166.528 159.952 168.076 158.26 168.076 155.524C168.076 151.672 166.348 150.016 164.188 150.016C162.064 150.016 160.804 151.6 160.804 154.336C160.804 157.864 162.28 159.952 164.62 159.952ZM168.148 167.404L161.344 166.972C160.804 167.548 159.796 168.88 159.796 170.176C159.796 171.508 160.984 173.38 164.764 173.38C169.192 173.38 171.028 171.256 171.028 169.6C171.028 168.34 170.2 167.548 168.148 167.404ZM175.528 166V164.776L177.796 164.02V151.888L175.384 151.312V150.34L179.812 148.612H179.992L180.784 151.888H180.82C181.432 151.168 183.7 148.612 186.724 148.612C190.072 148.612 191.62 150.052 191.62 154.66V164.056L193.96 164.812V166H186.508V164.776L188.56 164.056V154.948C188.416 152.428 187.66 151.024 185.248 151.024C182.908 151.024 180.856 153.004 180.856 153.076V164.056L183.232 164.776V166H175.528Z" fill="#333333"/>
<path fill-rule="evenodd" clip-rule="evenodd" d="M305.184 167.252L256.387 336.145L297.936 172.439L298.129 171.677L296.603 171.297L254.664 340.658L284.372 189.488L284.523 188.719L282.979 188.42L253.685 342.779L269.766 215.024L269.865 214.245L268.3 214.055L252.975 343.996L257.745 233.606L257.778 232.821L256.203 232.762L252.35 345.843L247.896 281.457L247.84 280.674L246.265 280.795L251.544 343.125L238.745 258.419L238.627 257.643L237.069 257.888L251.247 344.958L234.51 278.505L234.319 277.743L232.788 278.14L250.33 343.786L225.113 270.24L224.859 269.496L223.368 270.018L250.199 345.177L219.924 278.608L219.599 277.893L218.166 278.557L250.682 347.565L195.488 263.265L195.056 262.608L193.742 263.479L249.579 346.884L173.162 255.222L172.659 254.618L171.453 255.632L248.085 345.958L153.42 250.484L152.868 249.927L151.755 251.039L247.454 346.104L130.508 245.944L129.488 247.143L245.649 345.292L123.329 253.455L122.701 252.985L121.759 254.246L248.408 348.029L114.111 268.649L113.434 268.249L112.637 269.607L248.046 348.434L107.239 284.551L106.524 284.226L105.878 285.661L245.858 348.043L103.43 296.251L102.692 295.982L102.159 297.463L246.3 348.781L100.555 309.36L99.796 309.154L99.391 310.677L245.906 349.24L97.21 321.77L96.437 321.628L96.157 323.176L242.759 349.234L94.04 330.577L93.851 332.139L237.563 349.188L93.851 337L93.0681 336.934L92.9401 338.503L241.318 350.082L93.0261 345.179L92.9791 346.751L244.352 350.738L96.805 355.987L96.021 356.017L96.081 357.586L242.361 351.377L102.816 364.243L102.034 364.316L102.185 365.882L242.343 351.953L104.611 372.52L104.851 374.076L244.041 352.267L112.521 380.85L111.756 381.018L112.096 382.554L243.913 352.875L115.605 389.541L114.85 389.758L115.287 391.268L244.903 353.174L122.474 397.718L121.736 397.987L122.281 399.464L241.955 354.871L108.865 411.306L108.142 411.613L108.763 413.06L234.316 358.801L93.0051 424.135L92.2921 424.463L92.9571 425.892L235.39 358.982L79.6633 437.216L78.9603 437.568L79.6703 438.971L231.316 361.736L45.4608 461.355L44.7698 461.727L45.5168 463.11L239.429 358.032L54.6526 466.313L53.9756 466.709L54.7736 468.063L238.239 359.398L63.6775 470.011L63.0125 470.43L63.8585 471.758L240.399 358.703L74.7133 473.046L74.0683 473.493L74.9643 474.786L237.761 361.239L86.0822 473.396L85.4522 473.864L86.3902 475.124L244.48 356.953L100.798 475.767L100.193 476.269L101.2 477.476L241.791 359.925L109.821 478.472L109.236 478.996L110.29 480.163L242.694 359.886L120.521 479.498L119.963 480.047L121.064 481.169L242.438 360.953L129.544 480.865L129.007 481.437L130.155 482.512L240.44 363.957L137.569 480.884L137.05 481.472L138.235 482.51L242.684 362.303L147.94 478.895L147.445 479.505L148.669 480.492L245.007 360.362L159.646 476.244L159.179 476.876L160.449 477.805L243.758 363.075L171.691 469.566L171.252 470.216L172.558 471.093L247.821 358.08L151.831 521.896L153.189 522.688L242.877 367.716L150.711 536.819L150.334 537.51L151.717 538.259L245.691 363.75L154.718 547.406L154.369 548.109L155.779 548.805L247.761 360.82L162.24 557.494L161.928 558.212L163.37 558.838L249.426 358.341L173.52 569.842L175.001 570.369L249.525 359.677L185.329 577.189L185.107 577.94L186.615 578.383L250.951 356.713L203.913 586.804L203.758 587.572L205.298 587.884L250.795 360.16L216.972 590.87L216.859 591.645L218.416 591.87L250.273 367.697L225.013 592.405L224.926 593.185L226.488 593.358L251.599 360.771L238.082 593.451L238.038 594.235L239.608 594.323L251.955 364.29L248.133 588.457L248.121 589.241L249.691 589.265L252.595 357.908L265.226 579.969L265.269 580.751L266.84 580.661L253.011 355.97L285.842 564.968L285.965 565.743L287.517 565.495L254.003 358.798L297.064 550.161L297.237 550.927L298.769 550.577L254.603 358.989L308.988 544.622L309.209 545.377L310.716 544.93L254.212 355.771L324.433 529.949L324.727 530.678L326.182 530.084L256.006 358.756L334.671 523.462L335.008 524.17L336.426 523.489L255.333 356.105L344.256 506.93L344.655 507.606L346.008 506.803L257.87 359.306L350.562 498.423L350.998 499.075L352.304 498.2L255.275 354.459L344.833 460.794L345.339 461.393L346.54 460.376L258.001 356.824L336.577 438.21L337.124 438.775L338.252 437.674L258.689 356.706L322.288 414.371L322.872 414.897L323.926 413.724L258.05 355.341L306.004 392.293L306.626 392.771L307.581 391.512L258.836 355.16L320.722 395.412L321.38 395.841L322.235 394.51L258.858 354.462L342.487 399.758L343.177 400.13L343.921 398.743L258.46 353.599L368.868 401.739L369.588 402.053L370.212 400.606L259.223 353.319L380.759 395.495L381.5 395.753L382.01 394.262L381.266 394.01V394.011L257.824 352.257L373.523 380.201L374.287 380.384L374.649 378.853L258.246 351.793L365.59 367.337L366.368 367.449L366.585 365.89L258.773 351.304L364.959 357.245L365.745 357.291L365.825 355.715L258.506 350.731L363.31 346.96L364.094 346.93L364.029 345.355L257.908 350.2L360.898 336.038L360.675 334.477L259.317 349.432L353.397 328.595L354.165 328.424L353.815 326.888L257.771 349.204L351.376 318.331L350.877 316.835L258.732 348.287L344.777 311.592L345.498 311.283L344.874 309.836L256.602 348.597L335.112 303.545L335.795 303.155L335.002 301.79L257.041 347.697L328.221 296.54L328.861 296.081L327.931 294.805L256.399 347.471L322.374 288.132L322.955 287.607L321.894 286.44L255.739 347.321L308.335 287.477L307.142 286.441L254.739 347.626L291.802 290.804L292.233 290.145L290.901 289.292L254.497 346.966L283.561 286.132L282.13 285.461L254.418 345.787L316.016 169.49L316.273 168.749L314.786 168.234L255.919 339.781L306.472 168.445L306.692 167.693L305.184 167.252Z" fill="url(#paint1_linear_153_32)"/>
</g>
<defs>
<linearGradient id="paint0_linear_153_32" x1="20200" y1="932.753" x2="20200" y2="61523.8" gradientUnits="userSpaceOnUse">
<stop stop-color="#FAFCFF"/>
<stop offset="1" stop-color="#EDEFF2"/>
</linearGradient>
<linearGradient id="paint1_linear_153_32" x1="118.218" y1="250.806" x2="361.045" y2="668.18" gradientUnits="userSpaceOnUse">
<stop stop-color="#9396C5"/>
<stop offset="0.275" stop-color="#5CBBC3"/>
<stop offset="0.625" stop-color="#D9C0B3"/>
<stop offset="0.77" stop-color="#CA96D3"/>
</linearGradient>
<clipPath id="clip0_153_32">
<rect width="404" height="642" fill="white"/>
</clipPath>
</defs>
</svg>
